<svg class="main-svg" xmlns="http://www.w3.org/2000/svg" xmlns:xlink="http://www.w3.org/1999/xlink" width="1000" height="500" style="" viewBox="0 0 1000 500"><rect x="0" y="0" width="1000" height="500" style="fill: rgb(255, 255, 255); fill-opacity: 1;"/><defs id="defs-450cc7"><g class="clips"><clipPath id="clip450cc7xyplot" class="plotclip"><rect width="930" height="435"/></clipPath><clipPath class="axesclip" id="clip450cc7x"><rect x="60" y="0" width="930" height="500"/></clipPath><clipPath class="axesclip" id="clip450cc7y"><rect x="0" y="25" width="1000" height="435"/></clipPath><clipPath class="axesclip" id="clip450cc7xy"><rect x="60" y="25" width="930" height="435"/></clipPath></g><g class="gradients"/></defs><g class="bglayer"/><g class="layer-below"><g class="imagelayer"/><g class="shapelayer"/></g><g class="cartesianlayer"><g class="subplot xy"><g class="layer-subplot"><g class="shapelayer"/><g class="imagelayer"/></g><g class="gridlayer"><g class="x"><path class="xgrid crisp" transform="translate(95.32,0)" d="M0,25v435" style="stroke: rgb(238, 238, 238); stroke-opacity: 1; stroke-width: 1px;"/><path class="xgrid crisp" transform="translate(242.61,0)" d="M0,25v435" style="stroke: rgb(238, 238, 238); stroke-opacity: 1; stroke-width: 1px;"/><path class="xgrid crisp" transform="translate(389.9,0)" d="M0,25v435" style="stroke: rgb(238, 238, 238); stroke-opacity: 1; stroke-width: 1px;"/><path class="xgrid crisp" transform="translate(537.19,0)" d="M0,25v435" style="stroke: rgb(238, 238, 238); stroke-opacity: 1; stroke-width: 1px;"/><path class="xgrid crisp" transform="translate(684.48,0)" d="M0,25v435" style="stroke: rgb(238, 238, 238); stroke-opacity: 1; stroke-width: 1px;"/><path class="xgrid crisp" transform="translate(831.78,0)" d="M0,25v435" style="stroke: rgb(238, 238, 238); stroke-opacity: 1; stroke-width: 1px;"/><path class="xgrid crisp" transform="translate(979.07,0)" d="M0,25v435" style="stroke: rgb(238, 238, 238); stroke-opacity: 1; stroke-width: 1px;"/></g><g class="y"><path class="ygrid crisp" transform="translate(0,393.18)" d="M60,0h930" style="stroke: rgb(238, 238, 238); stroke-opacity: 1; stroke-width: 1px;"/><path class="ygrid crisp" transform="translate(0,322.95)" d="M60,0h930" style="stroke: rgb(238, 238, 238); stroke-opacity: 1; stroke-width: 1px;"/><path class="ygrid crisp" transform="translate(0,182.49)" d="M60,0h930" style="stroke: rgb(238, 238, 238); stroke-opacity: 1; stroke-width: 1px;"/><path class="ygrid crisp" transform="translate(0,112.26)" d="M60,0h930" style="stroke: rgb(238, 238, 238); stroke-opacity: 1; stroke-width: 1px;"/><path class="ygrid crisp" transform="translate(0,42.019999999999996)" d="M60,0h930" style="stroke: rgb(238, 238, 238); stroke-opacity: 1; stroke-width: 1px;"/></g></g><g class="zerolinelayer"><path class="yzl zl crisp" transform="translate(0,252.72)" d="M60,0h930" style="stroke: rgb(68, 68, 68); stroke-opacity: 1; stroke-width: 1px;"/></g><path class="xlines-below"/><path class="ylines-below"/><g class="overlines-below"/><g class="xaxislayer-below"/><g class="yaxislayer-below"/><g class="overaxes-below"/><g class="plot" transform="translate(60, 25)"><g class="scatterlayer mlayer"><g class="trace scatter traceadbc89" style="stroke-miterlimit: 2; opacity: 1;"><g class="fills" clip-path="url('#clip450cc7xyplot')"/><g class="errorbars"/><g class="lines"/><g class="points"><path class="point" transform="translate(470.72,232)" d="M1.89,0A1.89,1.89 0 1,1 0,-1.89A1.89,1.89 0 0,1 1.89,0Z" style="opacity: 1; stroke-width: 0px; fill: rgb(192, 0, 0); fill-opacity: 1;"/><path class="point" transform="translate(531.33,364.32)" d="M1.89,0A1.89,1.89 0 1,1 0,-1.89A1.89,1.89 0 0,1 1.89,0Z" style="opacity: 1; stroke-width: 0px; fill: rgb(192, 0, 0); fill-opacity: 1;"/><path class="point" transform="translate(672.13,191.83)" d="M1.89,0A1.89,1.89 0 1,1 0,-1.89A1.89,1.89 0 0,1 1.89,0Z" style="opacity: 1; stroke-width: 0px; fill: rgb(192, 0, 0); fill-opacity: 1;"/><path class="point" transform="translate(173.57,150.83)" d="M1.89,0A1.89,1.89 0 1,1 0,-1.89A1.89,1.89 0 0,1 1.89,0Z" style="opacity: 1; stroke-width: 0px; fill: rgb(192, 0, 0); fill-opacity: 1;"/><path class="point" transform="translate(567.65,327.4)" d="M1.89,0A1.89,1.89 0 1,1 0,-1.89A1.89,1.89 0 0,1 1.89,0Z" style="opacity: 1; stroke-width: 0px; fill: rgb(192, 0, 0); fill-opacity: 1;"/><path class="point" transform="translate(288.53,257.2)" d="M1.89,0A1.89,1.89 0 1,1 0,-1.89A1.89,1.89 0 0,1 1.89,0Z" style="opacity: 1; stroke-width: 0px; fill: rgb(192, 0, 0); fill-opacity: 1;"/><path class="point" transform="translate(638.08,286.98)" d="M1.89,0A1.89,1.89 0 1,1 0,-1.89A1.89,1.89 0 0,1 1.89,0Z" style="opacity: 1; stroke-width: 0px; fill: rgb(192, 0, 0); fill-opacity: 1;"/><path class="point" transform="translate(464.3,249.84)" d="M1.89,0A1.89,1.89 0 1,1 0,-1.89A1.89,1.89 0 0,1 1.89,0Z" style="opacity: 1; stroke-width: 0px; fill: rgb(192, 0, 0); fill-opacity: 1;"/><path class="point" transform="translate(187.7,329.45)" d="M1.89,0A1.89,1.89 0 1,1 0,-1.89A1.89,1.89 0 0,1 1.89,0Z" style="opacity: 1; stroke-width: 0px; fill: rgb(192, 0, 0); fill-opacity: 1;"/><path class="point" transform="translate(107.74,217.25)" d="M1.89,0A1.89,1.89 0 1,1 0,-1.89A1.89,1.89 0 0,1 1.89,0Z" style="opacity: 1; stroke-width: 0px; fill: rgb(192, 0, 0); fill-opacity: 1;"/><path class="point" transform="translate(244,304.84)" d="M1.89,0A1.89,1.89 0 1,1 0,-1.89A1.89,1.89 0 0,1 1.89,0Z" style="opacity: 1; stroke-width: 0px; fill: rgb(192, 0, 0); fill-opacity: 1;"/><path class="point" transform="translate(382.63,163.29)" d="M1.89,0A1.89,1.89 0 1,1 0,-1.89A1.89,1.89 0 0,1 1.89,0Z" style="opacity: 1; stroke-width: 0px; fill: rgb(192, 0, 0); fill-opacity: 1;"/><path class="point" transform="translate(644.35,268.8)" d="M1.89,0A1.89,1.89 0 1,1 0,-1.89A1.89,1.89 0 0,1 1.89,0Z" style="opacity: 1; stroke-width: 0px; fill: rgb(192, 0, 0); fill-opacity: 1;"/><path class="point" transform="translate(508.18,378.7)" d="M1.89,0A1.89,1.89 0 1,1 0,-1.89A1.89,1.89 0 0,1 1.89,0Z" style="opacity: 1; stroke-width: 0px; fill: rgb(192, 0, 0); fill-opacity: 1;"/><path class="point" transform="translate(632.98,281.61)" d="M1.89,0A1.89,1.89 0 1,1 0,-1.89A1.89,1.89 0 0,1 1.89,0Z" style="opacity: 1; stroke-width: 0px; fill: rgb(192, 0, 0); fill-opacity: 1;"/><path class="point" transform="translate(363.96,341.72)" d="M1.89,0A1.89,1.89 0 1,1 0,-1.89A1.89,1.89 0 0,1 1.89,0Z" style="opacity: 1; stroke-width: 0px; fill: rgb(192, 0, 0); fill-opacity: 1;"/><path class="point" transform="translate(49.5,211.56)" d="M1.89,0A1.89,1.89 0 1,1 0,-1.89A1.89,1.89 0 0,1 1.89,0Z" style="opacity: 1; stroke-width: 0px; fill: rgb(192, 0, 0); fill-opacity: 1;"/><path class="point" transform="translate(640.86,280.72)" d="M1.89,0A1.89,1.89 0 1,1 0,-1.89A1.89,1.89 0 0,1 1.89,0Z" style="opacity: 1; stroke-width: 0px; fill: rgb(192, 0, 0); fill-opacity: 1;"/><path class="point" transform="translate(216.76,274.41)" d="M1.89,0A1.89,1.89 0 1,1 0,-1.89A1.89,1.89 0 0,1 1.89,0Z" style="opacity: 1; stroke-width: 0px; fill: rgb(192, 0, 0); fill-opacity: 1;"/><path class="point" transform="translate(601.99,197.92)" d="M1.89,0A1.89,1.89 0 1,1 0,-1.89A1.89,1.89 0 0,1 1.89,0Z" style="opacity: 1; stroke-width: 0px; fill: rgb(192, 0, 0); fill-opacity: 1;"/><path class="point" transform="translate(238.73,410.25)" d="M1.89,0A1.89,1.89 0 1,1 0,-1.89A1.89,1.89 0 0,1 1.89,0Z" style="opacity: 1; stroke-width: 0px; fill: rgb(192, 0, 0); fill-opacity: 1;"/><path class="point" transform="translate(223.58,283.78)" d="M1.89,0A1.89,1.89 0 1,1 0,-1.89A1.89,1.89 0 0,1 1.89,0Z" style="opacity: 1; stroke-width: 0px; fill: rgb(192, 0, 0); fill-opacity: 1;"/><path class="point" transform="translate(880.5,253.29)" d="M1.89,0A1.89,1.89 0 1,1 0,-1.89A1.89,1.89 0 0,1 1.89,0Z" style="opacity: 1; stroke-width: 0px; fill: rgb(192, 0, 0); fill-opacity: 1;"/><path class="point" transform="translate(799.72,279.09)" d="M1.89,0A1.89,1.89 0 1,1 0,-1.89A1.89,1.89 0 0,1 1.89,0Z" style="opacity: 1; stroke-width: 0px; fill: rgb(192, 0, 0); fill-opacity: 1;"/><path class="point" transform="translate(723.13,337.68)" d="M1.89,0A1.89,1.89 0 1,1 0,-1.89A1.89,1.89 0 0,1 1.89,0Z" style="opacity: 1; stroke-width: 0px; fill: rgb(192, 0, 0); fill-opacity: 1;"/><path class="point" transform="translate(713.99,230.5)" d="M1.89,0A1.89,1.89 0 1,1 0,-1.89A1.89,1.89 0 0,1 1.89,0Z" style="opacity: 1; stroke-width: 0px; fill: rgb(192, 0, 0); fill-opacity: 1;"/><path class="point" transform="translate(457.01,244.17)" d="M1.89,0A1.89,1.89 0 1,1 0,-1.89A1.89,1.89 0 0,1 1.89,0Z" style="opacity: 1; stroke-width: 0px; fill: rgb(192, 0, 0); fill-opacity: 1;"/><path class="point" transform="translate(202.99,24.75)" d="M1.89,0A1.89,1.89 0 1,1 0,-1.89A1.89,1.89 0 0,1 1.89,0Z" style="opacity: 1; stroke-width: 0px; fill: rgb(192, 0, 0); fill-opacity: 1;"/><path class="point" transform="translate(461.42,184.72)" d="M1.89,0A1.89,1.89 0 1,1 0,-1.89A1.89,1.89 0 0,1 1.89,0Z" style="opacity: 1; stroke-width: 0px; fill: rgb(192, 0, 0); fill-opacity: 1;"/><path class="point" transform="translate(231.66,222.1)" d="M1.89,0A1.89,1.89 0 1,1 0,-1.89A1.89,1.89 0 0,1 1.89,0Z" style="opacity: 1; stroke-width: 0px; fill: rgb(192, 0, 0); fill-opacity: 1;"/><path class="point" transform="translate(294.62,255.2)" d="M1.89,0A1.89,1.89 0 1,1 0,-1.89A1.89,1.89 0 0,1 1.89,0Z" style="opacity: 1; stroke-width: 0px; fill: rgb(192, 0, 0); fill-opacity: 1;"/><path class="point" transform="translate(816.3,71.36)" d="M1.89,0A1.89,1.89 0 1,1 0,-1.89A1.89,1.89 0 0,1 1.89,0Z" style="opacity: 1; stroke-width: 0px; fill: rgb(192, 0, 0); fill-opacity: 1;"/><path class="point" transform="translate(573.71,68.34)" d="M1.89,0A1.89,1.89 0 1,1 0,-1.89A1.89,1.89 0 0,1 1.89,0Z" style="opacity: 1; stroke-width: 0px; fill: rgb(192, 0, 0); fill-opacity: 1;"/><path class="point" transform="translate(603.29,151.27)" d="M1.89,0A1.89,1.89 0 1,1 0,-1.89A1.89,1.89 0 0,1 1.89,0Z" style="opacity: 1; stroke-width: 0px; fill: rgb(192, 0, 0); fill-opacity: 1;"/></g><g class="text"><g class="textpoint" transform="translate(0,-31.8622047244375)"><text x="470.72" y="232" text-anchor="middle" style="font-family: 'Open Sans', verdana, arial, sans-serif; font-size: 10px; fill: rgb(0, 32, 96); fill-opacity: 1; white-space: pre;"><tspan class="line" dy="0em" x="470.72" y="232">1</tspan><tspan class="line" dy="1.3em" x="470.72" y="232">Serdemetan</tspan><tspan class="line" dy="2.6em" x="470.72" y="232"></tspan></text></g><g class="textpoint" transform="translate(0,-31.8622047244375)"><text x="531.33" y="364.32" text-anchor="middle" style="font-family: 'Open Sans', verdana, arial, sans-serif; font-size: 10px; fill: rgb(0, 32, 96); fill-opacity: 1; white-space: pre;"><tspan class="line" dy="0em" x="531.33" y="364.32">2</tspan><tspan class="line" dy="1.3em" x="531.33" y="364.32">BMS-387032</tspan><tspan class="line" dy="2.6em" x="531.33" y="364.32"></tspan></text></g><g class="textpoint" transform="translate(0,-31.8622047244375)"><text x="672.13" y="191.83" text-anchor="middle" style="font-family: 'Open Sans', verdana, arial, sans-serif; font-size: 10px; fill: rgb(0, 32, 96); fill-opacity: 1; white-space: pre;"><tspan class="line" dy="0em" x="672.13" y="191.83">3</tspan><tspan class="line" dy="1.3em" x="672.13" y="191.83">Ciclopirox</tspan><tspan class="line" dy="2.6em" x="672.13" y="191.83"></tspan></text></g><g class="textpoint" transform="translate(0,-31.8622047244375)"><text x="173.57" y="150.83" text-anchor="middle" style="font-family: 'Open Sans', verdana, arial, sans-serif; font-size: 10px; fill: rgb(0, 32, 96); fill-opacity: 1; white-space: pre;"><tspan class="line" dy="0em" x="173.57" y="150.83">4</tspan><tspan class="line" dy="1.3em" x="173.57" y="150.83">Racecadotril</tspan><tspan class="line" dy="2.6em" x="173.57" y="150.83"></tspan></text></g><g class="textpoint" transform="translate(0,-31.8622047244375)"><text x="567.65" y="327.4" text-anchor="middle" style="font-family: 'Open Sans', verdana, arial, sans-serif; font-size: 10px; fill: rgb(0, 32, 96); fill-opacity: 1; white-space: pre;"><tspan class="line" dy="0em" x="567.65" y="327.4">5</tspan><tspan class="line" dy="1.3em" x="567.65" y="327.4">Teniposide</tspan><tspan class="line" dy="2.6em" x="567.65" y="327.4"></tspan></text></g><g class="textpoint" transform="translate(0,-31.8622047244375)"><text x="288.53" y="257.2" text-anchor="middle" style="font-family: 'Open Sans', verdana, arial, sans-serif; font-size: 10px; fill: rgb(0, 32, 96); fill-opacity: 1; white-space: pre;"><tspan class="line" dy="0em" x="288.53" y="257.2">6</tspan><tspan class="line" dy="1.3em" x="288.53" y="257.2">Y-134</tspan><tspan class="line" dy="2.6em" x="288.53" y="257.2"></tspan></text></g><g class="textpoint" transform="translate(0,-31.8622047244375)"><text x="638.08" y="286.98" text-anchor="middle" style="font-family: 'Open Sans', verdana, arial, sans-serif; font-size: 10px; fill: rgb(0, 32, 96); fill-opacity: 1; white-space: pre;"><tspan class="line" dy="0em" x="638.08" y="286.98">7</tspan><tspan class="line" dy="1.3em" x="638.08" y="286.98">RS-17053</tspan><tspan class="line" dy="2.6em" x="638.08" y="286.98"></tspan></text></g><g class="textpoint" transform="translate(0,-31.8622047244375)"><text x="464.3" y="249.84" text-anchor="middle" style="font-family: 'Open Sans', verdana, arial, sans-serif; font-size: 10px; fill: rgb(0, 32, 96); fill-opacity: 1; white-space: pre;"><tspan class="line" dy="0em" x="464.3" y="249.84">8</tspan><tspan class="line" dy="1.3em" x="464.3" y="249.84">Digoxin</tspan><tspan class="line" dy="2.6em" x="464.3" y="249.84"></tspan></text></g><g class="textpoint" transform="translate(0,-31.8622047244375)"><text x="187.7" y="329.45" text-anchor="middle" style="font-family: 'Open Sans', verdana, arial, sans-serif; font-size: 10px; fill: rgb(0, 32, 96); fill-opacity: 1; white-space: pre;"><tspan class="line" dy="0em" x="187.7" y="329.45">9</tspan><tspan class="line" dy="1.3em" x="187.7" y="329.45">Medroxyprogesterone</tspan><tspan class="line" dy="2.6em" x="187.7" y="329.45"></tspan></text></g><g class="textpoint" transform="translate(0,-31.8622047244375)"><text x="107.74" y="217.25" text-anchor="middle" style="font-family: 'Open Sans', verdana, arial, sans-serif; font-size: 10px; fill: rgb(0, 32, 96); fill-opacity: 1; white-space: pre;"><tspan class="line" dy="0em" x="107.74" y="217.25">10</tspan><tspan class="line" dy="1.3em" x="107.74" y="217.25">Phloretin</tspan><tspan class="line" dy="2.6em" x="107.74" y="217.25"></tspan></text></g><g class="textpoint" transform="translate(0,-31.8622047244375)"><text x="244" y="304.84" text-anchor="middle" style="font-family: 'Open Sans', verdana, arial, sans-serif; font-size: 10px; fill: rgb(0, 32, 96); fill-opacity: 1; white-space: pre;"><tspan class="line" dy="0em" x="244" y="304.84">11</tspan><tspan class="line" dy="1.3em" x="244" y="304.84">Salmeterol</tspan><tspan class="line" dy="2.6em" x="244" y="304.84"></tspan></text></g><g class="textpoint" transform="translate(0,-31.8622047244375)"><text x="382.63" y="163.29" text-anchor="middle" style="font-family: 'Open Sans', verdana, arial, sans-serif; font-size: 10px; fill: rgb(0, 32, 96); fill-opacity: 1; white-space: pre;"><tspan class="line" dy="0em" x="382.63" y="163.29">12</tspan><tspan class="line" dy="1.3em" x="382.63" y="163.29">Saracatinib</tspan><tspan class="line" dy="2.6em" x="382.63" y="163.29"></tspan></text></g><g class="textpoint" transform="translate(0,-31.8622047244375)"><text x="644.35" y="268.8" text-anchor="middle" style="font-family: 'Open Sans', verdana, arial, sans-serif; font-size: 10px; fill: rgb(0, 32, 96); fill-opacity: 1; white-space: pre;"><tspan class="line" dy="0em" x="644.35" y="268.8">13</tspan><tspan class="line" dy="1.3em" x="644.35" y="268.8">Scriptaid</tspan><tspan class="line" dy="2.6em" x="644.35" y="268.8"></tspan></text></g><g class="textpoint" transform="translate(0,-31.8622047244375)"><text x="508.18" y="378.7" text-anchor="middle" style="font-family: 'Open Sans', verdana, arial, sans-serif; font-size: 10px; fill: rgb(0, 32, 96); fill-opacity: 1; white-space: pre;"><tspan class="line" dy="0em" x="508.18" y="378.7">14</tspan><tspan class="line" dy="1.3em" x="508.18" y="378.7">Leelamine</tspan><tspan class="line" dy="2.6em" x="508.18" y="378.7"></tspan></text></g><g class="textpoint" transform="translate(0,-31.8622047244375)"><text x="632.98" y="281.61" text-anchor="middle" style="font-family: 'Open Sans', verdana, arial, sans-serif; font-size: 10px; fill: rgb(0, 32, 96); fill-opacity: 1; white-space: pre;"><tspan class="line" dy="0em" x="632.98" y="281.61">15</tspan><tspan class="line" dy="1.3em" x="632.98" y="281.61">Actinomycin D</tspan><tspan class="line" dy="2.6em" x="632.98" y="281.61"></tspan></text></g><g class="textpoint" transform="translate(0,-31.8622047244375)"><text x="363.96" y="341.72" text-anchor="middle" style="font-family: 'Open Sans', verdana, arial, sans-serif; font-size: 10px; fill: rgb(0, 32, 96); fill-opacity: 1; white-space: pre;"><tspan class="line" dy="0em" x="363.96" y="341.72">16</tspan><tspan class="line" dy="1.3em" x="363.96" y="341.72">L-168</tspan><tspan class="line" dy="2.6em" x="363.96" y="341.72"></tspan></text></g><g class="textpoint" transform="translate(0,-31.8622047244375)"><text x="49.5" y="211.56" text-anchor="middle" style="font-family: 'Open Sans', verdana, arial, sans-serif; font-size: 10px; fill: rgb(0, 32, 96); fill-opacity: 1; white-space: pre;"><tspan class="line" dy="0em" x="49.5" y="211.56">17</tspan><tspan class="line" dy="1.3em" x="49.5" y="211.56">Triclosan</tspan><tspan class="line" dy="2.6em" x="49.5" y="211.56"></tspan></text></g><g class="textpoint" transform="translate(0,-31.8622047244375)"><text x="640.86" y="280.72" text-anchor="middle" style="font-family: 'Open Sans', verdana, arial, sans-serif; font-size: 10px; fill: rgb(0, 32, 96); fill-opacity: 1; white-space: pre;"><tspan class="line" dy="0em" x="640.86" y="280.72">18</tspan><tspan class="line" dy="1.3em" x="640.86" y="280.72">TW-37</tspan><tspan class="line" dy="2.6em" x="640.86" y="280.72"></tspan></text></g><g class="textpoint" transform="translate(0,-31.8622047244375)"><text x="216.76" y="274.41" text-anchor="middle" style="font-family: 'Open Sans', verdana, arial, sans-serif; font-size: 10px; fill: rgb(0, 32, 96); fill-opacity: 1; white-space: pre;"><tspan class="line" dy="0em" x="216.76" y="274.41">19</tspan><tspan class="line" dy="1.3em" x="216.76" y="274.41">Maprotiline</tspan><tspan class="line" dy="2.6em" x="216.76" y="274.41"></tspan></text></g><g class="textpoint" transform="translate(0,-31.8622047244375)"><text x="601.99" y="197.92" text-anchor="middle" style="font-family: 'Open Sans', verdana, arial, sans-serif; font-size: 10px; fill: rgb(0, 32, 96); fill-opacity: 1; white-space: pre;"><tspan class="line" dy="0em" x="601.99" y="197.92">20</tspan><tspan class="line" dy="1.3em" x="601.99" y="197.92">Dibenzazepine</tspan><tspan class="line" dy="2.6em" x="601.99" y="197.92"></tspan></text></g><g class="textpoint" transform="translate(0,-31.8622047244375)"><text x="238.73" y="410.25" text-anchor="middle" style="font-family: 'Open Sans', verdana, arial, sans-serif; font-size: 10px; fill: rgb(0, 32, 96); fill-opacity: 1; white-space: pre;"><tspan class="line" dy="0em" x="238.73" y="410.25">21</tspan><tspan class="line" dy="1.3em" x="238.73" y="410.25">Ursolic acid</tspan><tspan class="line" dy="2.6em" x="238.73" y="410.25"></tspan></text></g><g class="textpoint" transform="translate(0,-31.8622047244375)"><text x="223.58" y="283.78" text-anchor="middle" style="font-family: 'Open Sans', verdana, arial, sans-serif; font-size: 10px; fill: rgb(0, 32, 96); fill-opacity: 1; white-space: pre;"><tspan class="line" dy="0em" x="223.58" y="283.78">22</tspan><tspan class="line" dy="1.3em" x="223.58" y="283.78">Semagacestat</tspan><tspan class="line" dy="2.6em" x="223.58" y="283.78"></tspan></text></g><g class="textpoint" transform="translate(0,-31.8622047244375)"><text x="880.5" y="253.29" text-anchor="middle" style="font-family: 'Open Sans', verdana, arial, sans-serif; font-size: 10px; fill: rgb(0, 32, 96); fill-opacity: 1; white-space: pre;"><tspan class="line" dy="0em" x="880.5" y="253.29">23</tspan><tspan class="line" dy="1.3em" x="880.5" y="253.29">Entinostat</tspan><tspan class="line" dy="2.6em" x="880.5" y="253.29">TB32048</tspan></text></g><g class="textpoint" transform="translate(0,-31.8622047244375)"><text x="799.72" y="279.09" text-anchor="middle" style="font-family: 'Open Sans', verdana, arial, sans-serif; font-size: 10px; fill: rgb(0, 32, 96); fill-opacity: 1; white-space: pre;"><tspan class="line" dy="0em" x="799.72" y="279.09">24</tspan><tspan class="line" dy="1.3em" x="799.72" y="279.09">Entinostat</tspan><tspan class="line" dy="2.6em" x="799.72" y="279.09">K8484</tspan></text></g><g class="textpoint" transform="translate(0,-31.8622047244375)"><text x="723.13" y="337.68" text-anchor="middle" style="font-family: 'Open Sans', verdana, arial, sans-serif; font-size: 10px; fill: rgb(0, 32, 96); fill-opacity: 1; white-space: pre;"><tspan class="line" dy="0em" x="723.13" y="337.68">25</tspan><tspan class="line" dy="1.3em" x="723.13" y="337.68">Entinostat</tspan><tspan class="line" dy="2.6em" x="723.13" y="337.68">HPAF-II</tspan></text></g><g class="textpoint" transform="translate(0,-31.8622047244375)"><text x="713.99" y="230.5" text-anchor="middle" style="font-family: 'Open Sans', verdana, arial, sans-serif; font-size: 10px; fill: rgb(0, 32, 96); fill-opacity: 1; white-space: pre;"><tspan class="line" dy="0em" x="713.99" y="230.5">26</tspan><tspan class="line" dy="1.3em" x="713.99" y="230.5">Entinostat</tspan><tspan class="line" dy="2.6em" x="713.99" y="230.5">MIA PaCa-2</tspan></text></g><g class="textpoint" transform="translate(0,-31.8622047244375)"><text x="457.01" y="244.17" text-anchor="middle" style="font-family: 'Open Sans', verdana, arial, sans-serif; font-size: 10px; fill: rgb(0, 32, 96); fill-opacity: 1; white-space: pre;"><tspan class="line" dy="0em" x="457.01" y="244.17">27</tspan><tspan class="line" dy="1.3em" x="457.01" y="244.17">Palbociclib</tspan><tspan class="line" dy="2.6em" x="457.01" y="244.17"></tspan></text></g><g class="textpoint" transform="translate(0,-31.8622047244375)"><text x="202.99" y="24.75" text-anchor="middle" style="font-family: 'Open Sans', verdana, arial, sans-serif; font-size: 10px; fill: rgb(0, 32, 96); fill-opacity: 1; white-space: pre;"><tspan class="line" dy="0em" x="202.99" y="24.75">28</tspan><tspan class="line" dy="1.3em" x="202.99" y="24.75">STK525924</tspan><tspan class="line" dy="2.6em" x="202.99" y="24.75"></tspan></text></g><g class="textpoint" transform="translate(0,-31.8622047244375)"><text x="461.42" y="184.72" text-anchor="middle" style="font-family: 'Open Sans', verdana, arial, sans-serif; font-size: 10px; fill: rgb(0, 32, 96); fill-opacity: 1; white-space: pre;"><tspan class="line" dy="0em" x="461.42" y="184.72">29</tspan><tspan class="line" dy="1.3em" x="461.42" y="184.72">BX-795</tspan><tspan class="line" dy="2.6em" x="461.42" y="184.72"></tspan></text></g><g class="textpoint" transform="translate(0,-31.8622047244375)"><text x="231.66" y="222.1" text-anchor="middle" style="font-family: 'Open Sans', verdana, arial, sans-serif; font-size: 10px; fill: rgb(0, 32, 96); fill-opacity: 1; white-space: pre;"><tspan class="line" dy="0em" x="231.66" y="222.1">30</tspan><tspan class="line" dy="1.3em" x="231.66" y="222.1">Clofarabine</tspan><tspan class="line" dy="2.6em" x="231.66" y="222.1"></tspan></text></g><g class="textpoint" transform="translate(0,-31.8622047244375)"><text x="294.62" y="255.2" text-anchor="middle" style="font-family: 'Open Sans', verdana, arial, sans-serif; font-size: 10px; fill: rgb(0, 32, 96); fill-opacity: 1; white-space: pre;"><tspan class="line" dy="0em" x="294.62" y="255.2">31</tspan><tspan class="line" dy="1.3em" x="294.62" y="255.2">Tacedinaline</tspan><tspan class="line" dy="2.6em" x="294.62" y="255.2"></tspan></text></g><g class="textpoint" transform="translate(0,-31.8622047244375)"><text x="816.3" y="71.36" text-anchor="middle" style="font-family: 'Open Sans', verdana, arial, sans-serif; font-size: 10px; fill: rgb(0, 32, 96); fill-opacity: 1; white-space: pre;"><tspan class="line" dy="0em" x="816.3" y="71.36">32</tspan><tspan class="line" dy="1.3em" x="816.3" y="71.36">Entinostat</tspan><tspan class="line" dy="2.6em" x="816.3" y="71.36">PANC-1</tspan></text></g><g class="textpoint" transform="translate(0,-31.8622047244375)"><text x="573.71" y="68.34" text-anchor="middle" style="font-family: 'Open Sans', verdana, arial, sans-serif; font-size: 10px; fill: rgb(0, 32, 96); fill-opacity: 1; white-space: pre;"><tspan class="line" dy="0em" x="573.71" y="68.34">33</tspan><tspan class="line" dy="1.3em" x="573.71" y="68.34">Loperamide</tspan><tspan class="line" dy="2.6em" x="573.71" y="68.34"></tspan></text></g><g class="textpoint" transform="translate(0,-31.8622047244375)"><text x="603.29" y="151.27" text-anchor="middle" style="font-family: 'Open Sans', verdana, arial, sans-serif; font-size: 10px; fill: rgb(0, 32, 96); fill-opacity: 1; white-space: pre;"><tspan class="line" dy="0em" x="603.29" y="151.27">34</tspan><tspan class="line" dy="1.3em" x="603.29" y="151.27">Thioridazine</tspan><tspan class="line" dy="2.6em" x="603.29" y="151.27"></tspan></text></g></g></g></g></g><g class="overplot"/><path class="xlines-above crisp" d="M0,0" style="fill: none;"/><path class="ylines-above crisp" d="M0,0" style="fill: none;"/><g class="overlines-above"/><g class="xaxislayer-above"><g class="xtick"><text text-anchor="middle" x="0" y="473" transform="translate(95.32,0)" style="font-family: arial; font-size: 12px; fill: rgb(68, 68, 68); fill-opacity: 1; white-space: pre;">20</text></g><g class="xtick"><text text-anchor="middle" x="0" y="473" transform="translate(242.61,0)" style="font-family: arial; font-size: 12px; fill: rgb(68, 68, 68); fill-opacity: 1; white-space: pre;">30</text></g><g class="xtick"><text text-anchor="middle" x="0" y="473" transform="translate(389.9,0)" style="font-family: arial; font-size: 12px; fill: rgb(68, 68, 68); fill-opacity: 1; white-space: pre;">40</text></g><g class="xtick"><text text-anchor="middle" x="0" y="473" transform="translate(537.19,0)" style="font-family: arial; font-size: 12px; fill: rgb(68, 68, 68); fill-opacity: 1; white-space: pre;">50</text></g><g class="xtick"><text text-anchor="middle" x="0" y="473" transform="translate(684.48,0)" style="font-family: arial; font-size: 12px; fill: rgb(68, 68, 68); fill-opacity: 1; white-space: pre;">60</text></g><g class="xtick"><text text-anchor="middle" x="0" y="473" transform="translate(831.78,0)" style="font-family: arial; font-size: 12px; fill: rgb(68, 68, 68); fill-opacity: 1; white-space: pre;">70</text></g><g class="xtick"><text text-anchor="middle" x="0" y="473" transform="translate(979.07,0)" style="font-family: arial; font-size: 12px; fill: rgb(68, 68, 68); fill-opacity: 1; white-space: pre;">80</text></g></g><g class="yaxislayer-above"><g class="ytick"><text text-anchor="end" x="59" y="4.199999999999999" transform="translate(0,393.18)" style="font-family: arial; font-size: 12px; fill: rgb(68, 68, 68); fill-opacity: 1; white-space: pre;">−10</text></g><g class="ytick"><text text-anchor="end" x="59" y="4.199999999999999" transform="translate(0,322.95)" style="font-family: arial; font-size: 12px; fill: rgb(68, 68, 68); fill-opacity: 1; white-space: pre;">−5</text></g><g class="ytick"><text text-anchor="end" x="59" y="4.199999999999999" transform="translate(0,252.72)" style="font-family: arial; font-size: 12px; fill: rgb(68, 68, 68); fill-opacity: 1; white-space: pre;">0</text></g><g class="ytick"><text text-anchor="end" x="59" y="4.199999999999999" transform="translate(0,182.49)" style="font-family: arial; font-size: 12px; fill: rgb(68, 68, 68); fill-opacity: 1; white-space: pre;">5</text></g><g class="ytick"><text text-anchor="end" x="59" y="4.199999999999999" transform="translate(0,112.26)" style="font-family: arial; font-size: 12px; fill: rgb(68, 68, 68); fill-opacity: 1; white-space: pre;">10</text></g><g class="ytick"><text text-anchor="end" x="59" y="4.199999999999999" transform="translate(0,42.019999999999996)" style="font-family: arial; font-size: 12px; fill: rgb(68, 68, 68); fill-opacity: 1; white-space: pre;">15</text></g></g><g class="overaxes-above"/></g></g><g class="polarlayer"/><g class="ternarylayer"/><g class="geolayer"/><g class="funnelarealayer"/><g class="pielayer"/><g class="treemaplayer"/><g class="sunburstlayer"/><g class="glimages"/><defs id="topdefs-450cc7"><g class="clips"/></defs><g class="layer-above"><g class="imagelayer"/><g class="shapelayer"/></g><g class="infolayer"><g class="g-gtitle"><text class="gtitle" x="500" y="5" text-anchor="middle" dy="0.7em" style="font-family: 'Open Sans', verdana, arial, sans-serif; font-size: 17px; fill: rgb(68, 68, 68); opacity: 1; font-weight: normal; white-space: pre;"><tspan style="font-weight:bold">Bliss - CSS</tspan></text></g><g class="g-xtitle" transform="translate(0,-15)"><text class="xtitle" x="525" y="512" text-anchor="middle" style="font-family: 'Open Sans', verdana, arial, sans-serif; font-size: 14px; fill: rgb(68, 68, 68); opacity: 1; font-weight: normal; white-space: pre;"><tspan style="font-style:italic">Combination Sensitivity Score</tspan></text></g><g class="g-ytitle"><text class="ytitle" transform="rotate(-90,22,242.5)" x="22" y="242.5" text-anchor="middle" style="font-family: 'Open Sans', verdana, arial, sans-serif; font-size: 14px; fill: rgb(68, 68, 68); opacity: 1; font-weight: normal; white-space: pre;"><tspan style="font-style:italic">Synergy Score</tspan></text></g></g></svg>