<svg class="main-svg" xmlns="http://www.w3.org/2000/svg" xmlns:xlink="http://www.w3.org/1999/xlink" width="1000" height="500" style="" viewBox="0 0 1000 500"><rect x="0" y="0" width="1000" height="500" style="fill: rgb(255, 255, 255); fill-opacity: 1;"/><defs id="defs-9a9f50"><g class="clips"><clipPath id="clip9a9f50xyplot" class="plotclip"><rect width="930" height="435"/></clipPath><clipPath class="axesclip" id="clip9a9f50x"><rect x="60" y="0" width="930" height="500"/></clipPath><clipPath class="axesclip" id="clip9a9f50y"><rect x="0" y="25" width="1000" height="435"/></clipPath><clipPath class="axesclip" id="clip9a9f50xy"><rect x="60" y="25" width="930" height="435"/></clipPath></g><g class="gradients"/></defs><g class="bglayer"/><g class="layer-below"><g class="imagelayer"/><g class="shapelayer"/></g><g class="cartesianlayer"><g class="subplot xy"><g class="layer-subplot"><g class="shapelayer"/><g class="imagelayer"/></g><g class="gridlayer"><g class="x"><path class="xgrid crisp" transform="translate(95.32,0)" d="M0,25v435" style="stroke: rgb(238, 238, 238); stroke-opacity: 1; stroke-width: 1px;"/><path class="xgrid crisp" transform="translate(242.61,0)" d="M0,25v435" style="stroke: rgb(238, 238, 238); stroke-opacity: 1; stroke-width: 1px;"/><path class="xgrid crisp" transform="translate(389.9,0)" d="M0,25v435" style="stroke: rgb(238, 238, 238); stroke-opacity: 1; stroke-width: 1px;"/><path class="xgrid crisp" transform="translate(537.19,0)" d="M0,25v435" style="stroke: rgb(238, 238, 238); stroke-opacity: 1; stroke-width: 1px;"/><path class="xgrid crisp" transform="translate(684.48,0)" d="M0,25v435" style="stroke: rgb(238, 238, 238); stroke-opacity: 1; stroke-width: 1px;"/><path class="xgrid crisp" transform="translate(831.78,0)" d="M0,25v435" style="stroke: rgb(238, 238, 238); stroke-opacity: 1; stroke-width: 1px;"/><path class="xgrid crisp" transform="translate(979.07,0)" d="M0,25v435" style="stroke: rgb(238, 238, 238); stroke-opacity: 1; stroke-width: 1px;"/></g><g class="y"><path class="ygrid crisp" transform="translate(0,330.21)" d="M60,0h930" style="stroke: rgb(238, 238, 238); stroke-opacity: 1; stroke-width: 1px;"/><path class="ygrid crisp" transform="translate(0,247.79)" d="M60,0h930" style="stroke: rgb(238, 238, 238); stroke-opacity: 1; stroke-width: 1px;"/><path class="ygrid crisp" transform="translate(0,165.37)" d="M60,0h930" style="stroke: rgb(238, 238, 238); stroke-opacity: 1; stroke-width: 1px;"/><path class="ygrid crisp" transform="translate(0,82.96000000000001)" d="M60,0h930" style="stroke: rgb(238, 238, 238); stroke-opacity: 1; stroke-width: 1px;"/></g></g><g class="zerolinelayer"><path class="yzl zl crisp" transform="translate(0,412.62)" d="M60,0h930" style="stroke: rgb(68, 68, 68); stroke-opacity: 1; stroke-width: 1px;"/></g><path class="xlines-below"/><path class="ylines-below"/><g class="overlines-below"/><g class="xaxislayer-below"/><g class="yaxislayer-below"/><g class="overaxes-below"/><g class="plot" transform="translate(60, 25)"><g class="scatterlayer mlayer"><g class="trace scatter traceb1c389" style="stroke-miterlimit: 2; opacity: 1;"><g class="fills" clip-path="url('#clip9a9f50xyplot')"/><g class="errorbars"/><g class="lines"/><g class="points"><path class="point" transform="translate(470.72,239.97)" d="M1.89,0A1.89,1.89 0 1,1 0,-1.89A1.89,1.89 0 0,1 1.89,0Z" style="opacity: 1; stroke-width: 0px; fill: rgb(192, 0, 0); fill-opacity: 1;"/><path class="point" transform="translate(531.33,401.33)" d="M1.89,0A1.89,1.89 0 1,1 0,-1.89A1.89,1.89 0 0,1 1.89,0Z" style="opacity: 1; stroke-width: 0px; fill: rgb(192, 0, 0); fill-opacity: 1;"/><path class="point" transform="translate(672.13,229.81)" d="M1.89,0A1.89,1.89 0 1,1 0,-1.89A1.89,1.89 0 0,1 1.89,0Z" style="opacity: 1; stroke-width: 0px; fill: rgb(192, 0, 0); fill-opacity: 1;"/><path class="point" transform="translate(173.57,273.42)" d="M1.89,0A1.89,1.89 0 1,1 0,-1.89A1.89,1.89 0 0,1 1.89,0Z" style="opacity: 1; stroke-width: 0px; fill: rgb(192, 0, 0); fill-opacity: 1;"/><path class="point" transform="translate(567.65,352.67)" d="M1.89,0A1.89,1.89 0 1,1 0,-1.89A1.89,1.89 0 0,1 1.89,0Z" style="opacity: 1; stroke-width: 0px; fill: rgb(192, 0, 0); fill-opacity: 1;"/><path class="point" transform="translate(288.53,302.08)" d="M1.89,0A1.89,1.89 0 1,1 0,-1.89A1.89,1.89 0 0,1 1.89,0Z" style="opacity: 1; stroke-width: 0px; fill: rgb(192, 0, 0); fill-opacity: 1;"/><path class="point" transform="translate(638.08,342.05)" d="M1.89,0A1.89,1.89 0 1,1 0,-1.89A1.89,1.89 0 0,1 1.89,0Z" style="opacity: 1; stroke-width: 0px; fill: rgb(192, 0, 0); fill-opacity: 1;"/><path class="point" transform="translate(464.3,333.04)" d="M1.89,0A1.89,1.89 0 1,1 0,-1.89A1.89,1.89 0 0,1 1.89,0Z" style="opacity: 1; stroke-width: 0px; fill: rgb(192, 0, 0); fill-opacity: 1;"/><path class="point" transform="translate(187.7,345.43)" d="M1.89,0A1.89,1.89 0 1,1 0,-1.89A1.89,1.89 0 0,1 1.89,0Z" style="opacity: 1; stroke-width: 0px; fill: rgb(192, 0, 0); fill-opacity: 1;"/><path class="point" transform="translate(107.74,368.57)" d="M1.89,0A1.89,1.89 0 1,1 0,-1.89A1.89,1.89 0 0,1 1.89,0Z" style="opacity: 1; stroke-width: 0px; fill: rgb(192, 0, 0); fill-opacity: 1;"/><path class="point" transform="translate(244,331.52)" d="M1.89,0A1.89,1.89 0 1,1 0,-1.89A1.89,1.89 0 0,1 1.89,0Z" style="opacity: 1; stroke-width: 0px; fill: rgb(192, 0, 0); fill-opacity: 1;"/><path class="point" transform="translate(382.63,255.98)" d="M1.89,0A1.89,1.89 0 1,1 0,-1.89A1.89,1.89 0 0,1 1.89,0Z" style="opacity: 1; stroke-width: 0px; fill: rgb(192, 0, 0); fill-opacity: 1;"/><path class="point" transform="translate(644.35,291.6)" d="M1.89,0A1.89,1.89 0 1,1 0,-1.89A1.89,1.89 0 0,1 1.89,0Z" style="opacity: 1; stroke-width: 0px; fill: rgb(192, 0, 0); fill-opacity: 1;"/><path class="point" transform="translate(508.18,355.63)" d="M1.89,0A1.89,1.89 0 1,1 0,-1.89A1.89,1.89 0 0,1 1.89,0Z" style="opacity: 1; stroke-width: 0px; fill: rgb(192, 0, 0); fill-opacity: 1;"/><path class="point" transform="translate(632.98,332.63)" d="M1.89,0A1.89,1.89 0 1,1 0,-1.89A1.89,1.89 0 0,1 1.89,0Z" style="opacity: 1; stroke-width: 0px; fill: rgb(192, 0, 0); fill-opacity: 1;"/><path class="point" transform="translate(363.96,395.78)" d="M1.89,0A1.89,1.89 0 1,1 0,-1.89A1.89,1.89 0 0,1 1.89,0Z" style="opacity: 1; stroke-width: 0px; fill: rgb(192, 0, 0); fill-opacity: 1;"/><path class="point" transform="translate(49.5,346.76)" d="M1.89,0A1.89,1.89 0 1,1 0,-1.89A1.89,1.89 0 0,1 1.89,0Z" style="opacity: 1; stroke-width: 0px; fill: rgb(192, 0, 0); fill-opacity: 1;"/><path class="point" transform="translate(640.86,306.42)" d="M1.89,0A1.89,1.89 0 1,1 0,-1.89A1.89,1.89 0 0,1 1.89,0Z" style="opacity: 1; stroke-width: 0px; fill: rgb(192, 0, 0); fill-opacity: 1;"/><path class="point" transform="translate(216.76,344.37)" d="M1.89,0A1.89,1.89 0 1,1 0,-1.89A1.89,1.89 0 0,1 1.89,0Z" style="opacity: 1; stroke-width: 0px; fill: rgb(192, 0, 0); fill-opacity: 1;"/><path class="point" transform="translate(601.99,247.01)" d="M1.89,0A1.89,1.89 0 1,1 0,-1.89A1.89,1.89 0 0,1 1.89,0Z" style="opacity: 1; stroke-width: 0px; fill: rgb(192, 0, 0); fill-opacity: 1;"/><path class="point" transform="translate(238.73,403.37)" d="M1.89,0A1.89,1.89 0 1,1 0,-1.89A1.89,1.89 0 0,1 1.89,0Z" style="opacity: 1; stroke-width: 0px; fill: rgb(192, 0, 0); fill-opacity: 1;"/><path class="point" transform="translate(223.58,326.82)" d="M1.89,0A1.89,1.89 0 1,1 0,-1.89A1.89,1.89 0 0,1 1.89,0Z" style="opacity: 1; stroke-width: 0px; fill: rgb(192, 0, 0); fill-opacity: 1;"/><path class="point" transform="translate(880.5,349.82)" d="M1.89,0A1.89,1.89 0 1,1 0,-1.89A1.89,1.89 0 0,1 1.89,0Z" style="opacity: 1; stroke-width: 0px; fill: rgb(192, 0, 0); fill-opacity: 1;"/><path class="point" transform="translate(799.72,386.28)" d="M1.89,0A1.89,1.89 0 1,1 0,-1.89A1.89,1.89 0 0,1 1.89,0Z" style="opacity: 1; stroke-width: 0px; fill: rgb(192, 0, 0); fill-opacity: 1;"/><path class="point" transform="translate(723.13,410.25)" d="M1.89,0A1.89,1.89 0 1,1 0,-1.89A1.89,1.89 0 0,1 1.89,0Z" style="opacity: 1; stroke-width: 0px; fill: rgb(192, 0, 0); fill-opacity: 1;"/><path class="point" transform="translate(713.99,368.74)" d="M1.89,0A1.89,1.89 0 1,1 0,-1.89A1.89,1.89 0 0,1 1.89,0Z" style="opacity: 1; stroke-width: 0px; fill: rgb(192, 0, 0); fill-opacity: 1;"/><path class="point" transform="translate(457.01,273.68)" d="M1.89,0A1.89,1.89 0 1,1 0,-1.89A1.89,1.89 0 0,1 1.89,0Z" style="opacity: 1; stroke-width: 0px; fill: rgb(192, 0, 0); fill-opacity: 1;"/><path class="point" transform="translate(202.99,262.87)" d="M1.89,0A1.89,1.89 0 1,1 0,-1.89A1.89,1.89 0 0,1 1.89,0Z" style="opacity: 1; stroke-width: 0px; fill: rgb(192, 0, 0); fill-opacity: 1;"/><path class="point" transform="translate(461.42,232.11)" d="M1.89,0A1.89,1.89 0 1,1 0,-1.89A1.89,1.89 0 0,1 1.89,0Z" style="opacity: 1; stroke-width: 0px; fill: rgb(192, 0, 0); fill-opacity: 1;"/><path class="point" transform="translate(231.66,310.23)" d="M1.89,0A1.89,1.89 0 1,1 0,-1.89A1.89,1.89 0 0,1 1.89,0Z" style="opacity: 1; stroke-width: 0px; fill: rgb(192, 0, 0); fill-opacity: 1;"/><path class="point" transform="translate(294.62,326.48)" d="M1.89,0A1.89,1.89 0 1,1 0,-1.89A1.89,1.89 0 0,1 1.89,0Z" style="opacity: 1; stroke-width: 0px; fill: rgb(192, 0, 0); fill-opacity: 1;"/><path class="point" transform="translate(816.3,24.75)" d="M1.89,0A1.89,1.89 0 1,1 0,-1.89A1.89,1.89 0 0,1 1.89,0Z" style="opacity: 1; stroke-width: 0px; fill: rgb(192, 0, 0); fill-opacity: 1;"/><path class="point" transform="translate(573.71,61.72)" d="M1.89,0A1.89,1.89 0 1,1 0,-1.89A1.89,1.89 0 0,1 1.89,0Z" style="opacity: 1; stroke-width: 0px; fill: rgb(192, 0, 0); fill-opacity: 1;"/><path class="point" transform="translate(603.29,172.26)" d="M1.89,0A1.89,1.89 0 1,1 0,-1.89A1.89,1.89 0 0,1 1.89,0Z" style="opacity: 1; stroke-width: 0px; fill: rgb(192, 0, 0); fill-opacity: 1;"/></g><g class="text"><g class="textpoint" transform="translate(0,-31.8622047244375)"><text x="470.72" y="239.97" text-anchor="middle" style="font-family: 'Open Sans', verdana, arial, sans-serif; font-size: 10px; fill: rgb(0, 32, 96); fill-opacity: 1; white-space: pre;"><tspan class="line" dy="0em" x="470.72" y="239.97">1</tspan><tspan class="line" dy="1.3em" x="470.72" y="239.97">Serdemetan</tspan><tspan class="line" dy="2.6em" x="470.72" y="239.97"></tspan></text></g><g class="textpoint" transform="translate(0,-31.8622047244375)"><text x="531.33" y="401.33" text-anchor="middle" style="font-family: 'Open Sans', verdana, arial, sans-serif; font-size: 10px; fill: rgb(0, 32, 96); fill-opacity: 1; white-space: pre;"><tspan class="line" dy="0em" x="531.33" y="401.33">2</tspan><tspan class="line" dy="1.3em" x="531.33" y="401.33">BMS-387032</tspan><tspan class="line" dy="2.6em" x="531.33" y="401.33"></tspan></text></g><g class="textpoint" transform="translate(0,-31.8622047244375)"><text x="672.13" y="229.81" text-anchor="middle" style="font-family: 'Open Sans', verdana, arial, sans-serif; font-size: 10px; fill: rgb(0, 32, 96); fill-opacity: 1; white-space: pre;"><tspan class="line" dy="0em" x="672.13" y="229.81">3</tspan><tspan class="line" dy="1.3em" x="672.13" y="229.81">Ciclopirox</tspan><tspan class="line" dy="2.6em" x="672.13" y="229.81"></tspan></text></g><g class="textpoint" transform="translate(0,-31.8622047244375)"><text x="173.57" y="273.42" text-anchor="middle" style="font-family: 'Open Sans', verdana, arial, sans-serif; font-size: 10px; fill: rgb(0, 32, 96); fill-opacity: 1; white-space: pre;"><tspan class="line" dy="0em" x="173.57" y="273.42">4</tspan><tspan class="line" dy="1.3em" x="173.57" y="273.42">Racecadotril</tspan><tspan class="line" dy="2.6em" x="173.57" y="273.42"></tspan></text></g><g class="textpoint" transform="translate(0,-31.8622047244375)"><text x="567.65" y="352.67" text-anchor="middle" style="font-family: 'Open Sans', verdana, arial, sans-serif; font-size: 10px; fill: rgb(0, 32, 96); fill-opacity: 1; white-space: pre;"><tspan class="line" dy="0em" x="567.65" y="352.67">5</tspan><tspan class="line" dy="1.3em" x="567.65" y="352.67">Teniposide</tspan><tspan class="line" dy="2.6em" x="567.65" y="352.67"></tspan></text></g><g class="textpoint" transform="translate(0,-31.8622047244375)"><text x="288.53" y="302.08" text-anchor="middle" style="font-family: 'Open Sans', verdana, arial, sans-serif; font-size: 10px; fill: rgb(0, 32, 96); fill-opacity: 1; white-space: pre;"><tspan class="line" dy="0em" x="288.53" y="302.08">6</tspan><tspan class="line" dy="1.3em" x="288.53" y="302.08">Y-134</tspan><tspan class="line" dy="2.6em" x="288.53" y="302.08"></tspan></text></g><g class="textpoint" transform="translate(0,-31.8622047244375)"><text x="638.08" y="342.05" text-anchor="middle" style="font-family: 'Open Sans', verdana, arial, sans-serif; font-size: 10px; fill: rgb(0, 32, 96); fill-opacity: 1; white-space: pre;"><tspan class="line" dy="0em" x="638.08" y="342.05">7</tspan><tspan class="line" dy="1.3em" x="638.08" y="342.05">RS-17053</tspan><tspan class="line" dy="2.6em" x="638.08" y="342.05"></tspan></text></g><g class="textpoint" transform="translate(0,-31.8622047244375)"><text x="464.3" y="333.04" text-anchor="middle" style="font-family: 'Open Sans', verdana, arial, sans-serif; font-size: 10px; fill: rgb(0, 32, 96); fill-opacity: 1; white-space: pre;"><tspan class="line" dy="0em" x="464.3" y="333.04">8</tspan><tspan class="line" dy="1.3em" x="464.3" y="333.04">Digoxin</tspan><tspan class="line" dy="2.6em" x="464.3" y="333.04"></tspan></text></g><g class="textpoint" transform="translate(0,-31.8622047244375)"><text x="187.7" y="345.43" text-anchor="middle" style="font-family: 'Open Sans', verdana, arial, sans-serif; font-size: 10px; fill: rgb(0, 32, 96); fill-opacity: 1; white-space: pre;"><tspan class="line" dy="0em" x="187.7" y="345.43">9</tspan><tspan class="line" dy="1.3em" x="187.7" y="345.43">Medroxyprogesterone</tspan><tspan class="line" dy="2.6em" x="187.7" y="345.43"></tspan></text></g><g class="textpoint" transform="translate(0,-31.8622047244375)"><text x="107.74" y="368.57" text-anchor="middle" style="font-family: 'Open Sans', verdana, arial, sans-serif; font-size: 10px; fill: rgb(0, 32, 96); fill-opacity: 1; white-space: pre;"><tspan class="line" dy="0em" x="107.74" y="368.57">10</tspan><tspan class="line" dy="1.3em" x="107.74" y="368.57">Phloretin</tspan><tspan class="line" dy="2.6em" x="107.74" y="368.57"></tspan></text></g><g class="textpoint" transform="translate(0,-31.8622047244375)"><text x="244" y="331.52" text-anchor="middle" style="font-family: 'Open Sans', verdana, arial, sans-serif; font-size: 10px; fill: rgb(0, 32, 96); fill-opacity: 1; white-space: pre;"><tspan class="line" dy="0em" x="244" y="331.52">11</tspan><tspan class="line" dy="1.3em" x="244" y="331.52">Salmeterol</tspan><tspan class="line" dy="2.6em" x="244" y="331.52"></tspan></text></g><g class="textpoint" transform="translate(0,-31.8622047244375)"><text x="382.63" y="255.98" text-anchor="middle" style="font-family: 'Open Sans', verdana, arial, sans-serif; font-size: 10px; fill: rgb(0, 32, 96); fill-opacity: 1; white-space: pre;"><tspan class="line" dy="0em" x="382.63" y="255.98">12</tspan><tspan class="line" dy="1.3em" x="382.63" y="255.98">Saracatinib</tspan><tspan class="line" dy="2.6em" x="382.63" y="255.98"></tspan></text></g><g class="textpoint" transform="translate(0,-31.8622047244375)"><text x="644.35" y="291.6" text-anchor="middle" style="font-family: 'Open Sans', verdana, arial, sans-serif; font-size: 10px; fill: rgb(0, 32, 96); fill-opacity: 1; white-space: pre;"><tspan class="line" dy="0em" x="644.35" y="291.6">13</tspan><tspan class="line" dy="1.3em" x="644.35" y="291.6">Scriptaid</tspan><tspan class="line" dy="2.6em" x="644.35" y="291.6"></tspan></text></g><g class="textpoint" transform="translate(0,-31.8622047244375)"><text x="508.18" y="355.63" text-anchor="middle" style="font-family: 'Open Sans', verdana, arial, sans-serif; font-size: 10px; fill: rgb(0, 32, 96); fill-opacity: 1; white-space: pre;"><tspan class="line" dy="0em" x="508.18" y="355.63">14</tspan><tspan class="line" dy="1.3em" x="508.18" y="355.63">Leelamine</tspan><tspan class="line" dy="2.6em" x="508.18" y="355.63"></tspan></text></g><g class="textpoint" transform="translate(0,-31.8622047244375)"><text x="632.98" y="332.63" text-anchor="middle" style="font-family: 'Open Sans', verdana, arial, sans-serif; font-size: 10px; fill: rgb(0, 32, 96); fill-opacity: 1; white-space: pre;"><tspan class="line" dy="0em" x="632.98" y="332.63">15</tspan><tspan class="line" dy="1.3em" x="632.98" y="332.63">Actinomycin D</tspan><tspan class="line" dy="2.6em" x="632.98" y="332.63"></tspan></text></g><g class="textpoint" transform="translate(0,-31.8622047244375)"><text x="363.96" y="395.78" text-anchor="middle" style="font-family: 'Open Sans', verdana, arial, sans-serif; font-size: 10px; fill: rgb(0, 32, 96); fill-opacity: 1; white-space: pre;"><tspan class="line" dy="0em" x="363.96" y="395.78">16</tspan><tspan class="line" dy="1.3em" x="363.96" y="395.78">L-168</tspan><tspan class="line" dy="2.6em" x="363.96" y="395.78"></tspan></text></g><g class="textpoint" transform="translate(0,-31.8622047244375)"><text x="49.5" y="346.76" text-anchor="middle" style="font-family: 'Open Sans', verdana, arial, sans-serif; font-size: 10px; fill: rgb(0, 32, 96); fill-opacity: 1; white-space: pre;"><tspan class="line" dy="0em" x="49.5" y="346.76">17</tspan><tspan class="line" dy="1.3em" x="49.5" y="346.76">Triclosan</tspan><tspan class="line" dy="2.6em" x="49.5" y="346.76"></tspan></text></g><g class="textpoint" transform="translate(0,-31.8622047244375)"><text x="640.86" y="306.42" text-anchor="middle" style="font-family: 'Open Sans', verdana, arial, sans-serif; font-size: 10px; fill: rgb(0, 32, 96); fill-opacity: 1; white-space: pre;"><tspan class="line" dy="0em" x="640.86" y="306.42">18</tspan><tspan class="line" dy="1.3em" x="640.86" y="306.42">TW-37</tspan><tspan class="line" dy="2.6em" x="640.86" y="306.42"></tspan></text></g><g class="textpoint" transform="translate(0,-31.8622047244375)"><text x="216.76" y="344.37" text-anchor="middle" style="font-family: 'Open Sans', verdana, arial, sans-serif; font-size: 10px; fill: rgb(0, 32, 96); fill-opacity: 1; white-space: pre;"><tspan class="line" dy="0em" x="216.76" y="344.37">19</tspan><tspan class="line" dy="1.3em" x="216.76" y="344.37">Maprotiline</tspan><tspan class="line" dy="2.6em" x="216.76" y="344.37"></tspan></text></g><g class="textpoint" transform="translate(0,-31.8622047244375)"><text x="601.99" y="247.01" text-anchor="middle" style="font-family: 'Open Sans', verdana, arial, sans-serif; font-size: 10px; fill: rgb(0, 32, 96); fill-opacity: 1; white-space: pre;"><tspan class="line" dy="0em" x="601.99" y="247.01">20</tspan><tspan class="line" dy="1.3em" x="601.99" y="247.01">Dibenzazepine</tspan><tspan class="line" dy="2.6em" x="601.99" y="247.01"></tspan></text></g><g class="textpoint" transform="translate(0,-31.8622047244375)"><text x="238.73" y="403.37" text-anchor="middle" style="font-family: 'Open Sans', verdana, arial, sans-serif; font-size: 10px; fill: rgb(0, 32, 96); fill-opacity: 1; white-space: pre;"><tspan class="line" dy="0em" x="238.73" y="403.37">21</tspan><tspan class="line" dy="1.3em" x="238.73" y="403.37">Ursolic acid</tspan><tspan class="line" dy="2.6em" x="238.73" y="403.37"></tspan></text></g><g class="textpoint" transform="translate(0,-31.8622047244375)"><text x="223.58" y="326.82" text-anchor="middle" style="font-family: 'Open Sans', verdana, arial, sans-serif; font-size: 10px; fill: rgb(0, 32, 96); fill-opacity: 1; white-space: pre;"><tspan class="line" dy="0em" x="223.58" y="326.82">22</tspan><tspan class="line" dy="1.3em" x="223.58" y="326.82">Semagacestat</tspan><tspan class="line" dy="2.6em" x="223.58" y="326.82"></tspan></text></g><g class="textpoint" transform="translate(0,-31.8622047244375)"><text x="880.5" y="349.82" text-anchor="middle" style="font-family: 'Open Sans', verdana, arial, sans-serif; font-size: 10px; fill: rgb(0, 32, 96); fill-opacity: 1; white-space: pre;"><tspan class="line" dy="0em" x="880.5" y="349.82">23</tspan><tspan class="line" dy="1.3em" x="880.5" y="349.82">Entinostat</tspan><tspan class="line" dy="2.6em" x="880.5" y="349.82">TB32048</tspan></text></g><g class="textpoint" transform="translate(0,-31.8622047244375)"><text x="799.72" y="386.28" text-anchor="middle" style="font-family: 'Open Sans', verdana, arial, sans-serif; font-size: 10px; fill: rgb(0, 32, 96); fill-opacity: 1; white-space: pre;"><tspan class="line" dy="0em" x="799.72" y="386.28">24</tspan><tspan class="line" dy="1.3em" x="799.72" y="386.28">Entinostat</tspan><tspan class="line" dy="2.6em" x="799.72" y="386.28">K8484</tspan></text></g><g class="textpoint" transform="translate(0,-31.8622047244375)"><text x="723.13" y="410.25" text-anchor="middle" style="font-family: 'Open Sans', verdana, arial, sans-serif; font-size: 10px; fill: rgb(0, 32, 96); fill-opacity: 1; white-space: pre;"><tspan class="line" dy="0em" x="723.13" y="410.25">25</tspan><tspan class="line" dy="1.3em" x="723.13" y="410.25">Entinostat</tspan><tspan class="line" dy="2.6em" x="723.13" y="410.25">HPAF-II</tspan></text></g><g class="textpoint" transform="translate(0,-31.8622047244375)"><text x="713.99" y="368.74" text-anchor="middle" style="font-family: 'Open Sans', verdana, arial, sans-serif; font-size: 10px; fill: rgb(0, 32, 96); fill-opacity: 1; white-space: pre;"><tspan class="line" dy="0em" x="713.99" y="368.74">26</tspan><tspan class="line" dy="1.3em" x="713.99" y="368.74">Entinostat</tspan><tspan class="line" dy="2.6em" x="713.99" y="368.74">MIA PaCa-2</tspan></text></g><g class="textpoint" transform="translate(0,-31.8622047244375)"><text x="457.01" y="273.68" text-anchor="middle" style="font-family: 'Open Sans', verdana, arial, sans-serif; font-size: 10px; fill: rgb(0, 32, 96); fill-opacity: 1; white-space: pre;"><tspan class="line" dy="0em" x="457.01" y="273.68">27</tspan><tspan class="line" dy="1.3em" x="457.01" y="273.68">Palbociclib</tspan><tspan class="line" dy="2.6em" x="457.01" y="273.68"></tspan></text></g><g class="textpoint" transform="translate(0,-31.8622047244375)"><text x="202.99" y="262.87" text-anchor="middle" style="font-family: 'Open Sans', verdana, arial, sans-serif; font-size: 10px; fill: rgb(0, 32, 96); fill-opacity: 1; white-space: pre;"><tspan class="line" dy="0em" x="202.99" y="262.87">28</tspan><tspan class="line" dy="1.3em" x="202.99" y="262.87">STK525924</tspan><tspan class="line" dy="2.6em" x="202.99" y="262.87"></tspan></text></g><g class="textpoint" transform="translate(0,-31.8622047244375)"><text x="461.42" y="232.11" text-anchor="middle" style="font-family: 'Open Sans', verdana, arial, sans-serif; font-size: 10px; fill: rgb(0, 32, 96); fill-opacity: 1; white-space: pre;"><tspan class="line" dy="0em" x="461.42" y="232.11">29</tspan><tspan class="line" dy="1.3em" x="461.42" y="232.11">BX-795</tspan><tspan class="line" dy="2.6em" x="461.42" y="232.11"></tspan></text></g><g class="textpoint" transform="translate(0,-31.8622047244375)"><text x="231.66" y="310.23" text-anchor="middle" style="font-family: 'Open Sans', verdana, arial, sans-serif; font-size: 10px; fill: rgb(0, 32, 96); fill-opacity: 1; white-space: pre;"><tspan class="line" dy="0em" x="231.66" y="310.23">30</tspan><tspan class="line" dy="1.3em" x="231.66" y="310.23">Clofarabine</tspan><tspan class="line" dy="2.6em" x="231.66" y="310.23"></tspan></text></g><g class="textpoint" transform="translate(0,-31.8622047244375)"><text x="294.62" y="326.48" text-anchor="middle" style="font-family: 'Open Sans', verdana, arial, sans-serif; font-size: 10px; fill: rgb(0, 32, 96); fill-opacity: 1; white-space: pre;"><tspan class="line" dy="0em" x="294.62" y="326.48">31</tspan><tspan class="line" dy="1.3em" x="294.62" y="326.48">Tacedinaline</tspan><tspan class="line" dy="2.6em" x="294.62" y="326.48"></tspan></text></g><g class="textpoint" transform="translate(0,-31.8622047244375)"><text x="816.3" y="24.75" text-anchor="middle" style="font-family: 'Open Sans', verdana, arial, sans-serif; font-size: 10px; fill: rgb(0, 32, 96); fill-opacity: 1; white-space: pre;"><tspan class="line" dy="0em" x="816.3" y="24.75">32</tspan><tspan class="line" dy="1.3em" x="816.3" y="24.75">Entinostat</tspan><tspan class="line" dy="2.6em" x="816.3" y="24.75">PANC-1</tspan></text></g><g class="textpoint" transform="translate(0,-31.8622047244375)"><text x="573.71" y="61.72" text-anchor="middle" style="font-family: 'Open Sans', verdana, arial, sans-serif; font-size: 10px; fill: rgb(0, 32, 96); fill-opacity: 1; white-space: pre;"><tspan class="line" dy="0em" x="573.71" y="61.72">33</tspan><tspan class="line" dy="1.3em" x="573.71" y="61.72">Loperamide</tspan><tspan class="line" dy="2.6em" x="573.71" y="61.72"></tspan></text></g><g class="textpoint" transform="translate(0,-31.8622047244375)"><text x="603.29" y="172.26" text-anchor="middle" style="font-family: 'Open Sans', verdana, arial, sans-serif; font-size: 10px; fill: rgb(0, 32, 96); fill-opacity: 1; white-space: pre;"><tspan class="line" dy="0em" x="603.29" y="172.26">34</tspan><tspan class="line" dy="1.3em" x="603.29" y="172.26">Thioridazine</tspan><tspan class="line" dy="2.6em" x="603.29" y="172.26"></tspan></text></g></g></g></g></g><g class="overplot"/><path class="xlines-above crisp" d="M0,0" style="fill: none;"/><path class="ylines-above crisp" d="M0,0" style="fill: none;"/><g class="overlines-above"/><g class="xaxislayer-above"><g class="xtick"><text text-anchor="middle" x="0" y="473" transform="translate(95.32,0)" style="font-family: arial; font-size: 12px; fill: rgb(68, 68, 68); fill-opacity: 1; white-space: pre;">20</text></g><g class="xtick"><text text-anchor="middle" x="0" y="473" transform="translate(242.61,0)" style="font-family: arial; font-size: 12px; fill: rgb(68, 68, 68); fill-opacity: 1; white-space: pre;">30</text></g><g class="xtick"><text text-anchor="middle" x="0" y="473" transform="translate(389.9,0)" style="font-family: arial; font-size: 12px; fill: rgb(68, 68, 68); fill-opacity: 1; white-space: pre;">40</text></g><g class="xtick"><text text-anchor="middle" x="0" y="473" transform="translate(537.19,0)" style="font-family: arial; font-size: 12px; fill: rgb(68, 68, 68); fill-opacity: 1; white-space: pre;">50</text></g><g class="xtick"><text text-anchor="middle" x="0" y="473" transform="translate(684.48,0)" style="font-family: arial; font-size: 12px; fill: rgb(68, 68, 68); fill-opacity: 1; white-space: pre;">60</text></g><g class="xtick"><text text-anchor="middle" x="0" y="473" transform="translate(831.78,0)" style="font-family: arial; font-size: 12px; fill: rgb(68, 68, 68); fill-opacity: 1; white-space: pre;">70</text></g><g class="xtick"><text text-anchor="middle" x="0" y="473" transform="translate(979.07,0)" style="font-family: arial; font-size: 12px; fill: rgb(68, 68, 68); fill-opacity: 1; white-space: pre;">80</text></g></g><g class="yaxislayer-above"><g class="ytick"><text text-anchor="end" x="59" y="4.199999999999999" transform="translate(0,412.62)" style="font-family: arial; font-size: 12px; fill: rgb(68, 68, 68); fill-opacity: 1; white-space: pre;">0</text></g><g class="ytick"><text text-anchor="end" x="59" y="4.199999999999999" transform="translate(0,330.21)" style="font-family: arial; font-size: 12px; fill: rgb(68, 68, 68); fill-opacity: 1; white-space: pre;">5</text></g><g class="ytick"><text text-anchor="end" x="59" y="4.199999999999999" transform="translate(0,247.79)" style="font-family: arial; font-size: 12px; fill: rgb(68, 68, 68); fill-opacity: 1; white-space: pre;">10</text></g><g class="ytick"><text text-anchor="end" x="59" y="4.199999999999999" transform="translate(0,165.37)" style="font-family: arial; font-size: 12px; fill: rgb(68, 68, 68); fill-opacity: 1; white-space: pre;">15</text></g><g class="ytick"><text text-anchor="end" x="59" y="4.199999999999999" transform="translate(0,82.96000000000001)" style="font-family: arial; font-size: 12px; fill: rgb(68, 68, 68); fill-opacity: 1; white-space: pre;">20</text></g></g><g class="overaxes-above"/></g></g><g class="polarlayer"/><g class="ternarylayer"/><g class="geolayer"/><g class="funnelarealayer"/><g class="pielayer"/><g class="treemaplayer"/><g class="sunburstlayer"/><g class="glimages"/><defs id="topdefs-9a9f50"><g class="clips"/></defs><g class="layer-above"><g class="imagelayer"/><g class="shapelayer"/></g><g class="infolayer"><g class="g-gtitle"><text class="gtitle" x="500" y="5" text-anchor="middle" dy="0.7em" style="font-family: 'Open Sans', verdana, arial, sans-serif; font-size: 17px; fill: rgb(68, 68, 68); opacity: 1; font-weight: normal; white-space: pre;"><tspan style="font-weight:bold">HSA - CSS</tspan></text></g><g class="g-xtitle" transform="translate(0,-15)"><text class="xtitle" x="525" y="512" text-anchor="middle" style="font-family: 'Open Sans', verdana, arial, sans-serif; font-size: 14px; fill: rgb(68, 68, 68); opacity: 1; font-weight: normal; white-space: pre;"><tspan style="font-style:italic">Combination Sensitivity Score</tspan></text></g><g class="g-ytitle"><text class="ytitle" transform="rotate(-90,22,242.5)" x="22" y="242.5" text-anchor="middle" style="font-family: 'Open Sans', verdana, arial, sans-serif; font-size: 14px; fill: rgb(68, 68, 68); opacity: 1; font-weight: normal; white-space: pre;"><tspan style="font-style:italic">Synergy Score</tspan></text></g></g></svg>