<svg class="main-svg" xmlns="http://www.w3.org/2000/svg" xmlns:xlink="http://www.w3.org/1999/xlink" width="1000" height="500" style="" viewBox="0 0 1000 500"><rect x="0" y="0" width="1000" height="500" style="fill: rgb(255, 255, 255); fill-opacity: 1;"/><defs id="defs-169894"><g class="clips"><clipPath id="clip169894xyplot" class="plotclip"><rect width="930" height="435"/></clipPath><clipPath class="axesclip" id="clip169894x"><rect x="60" y="0" width="930" height="500"/></clipPath><clipPath class="axesclip" id="clip169894y"><rect x="0" y="25" width="1000" height="435"/></clipPath><clipPath class="axesclip" id="clip169894xy"><rect x="60" y="25" width="930" height="435"/></clipPath></g><g class="gradients"/></defs><g class="bglayer"/><g class="layer-below"><g class="imagelayer"/><g class="shapelayer"/></g><g class="cartesianlayer"><g class="subplot xy"><g class="layer-subplot"><g class="shapelayer"/><g class="imagelayer"/></g><g class="gridlayer"><g class="x"><path class="xgrid crisp" transform="translate(95.32,0)" d="M0,25v435" style="stroke: rgb(238, 238, 238); stroke-opacity: 1; stroke-width: 1px;"/><path class="xgrid crisp" transform="translate(242.61,0)" d="M0,25v435" style="stroke: rgb(238, 238, 238); stroke-opacity: 1; stroke-width: 1px;"/><path class="xgrid crisp" transform="translate(389.9,0)" d="M0,25v435" style="stroke: rgb(238, 238, 238); stroke-opacity: 1; stroke-width: 1px;"/><path class="xgrid crisp" transform="translate(537.19,0)" d="M0,25v435" style="stroke: rgb(238, 238, 238); stroke-opacity: 1; stroke-width: 1px;"/><path class="xgrid crisp" transform="translate(684.48,0)" d="M0,25v435" style="stroke: rgb(238, 238, 238); stroke-opacity: 1; stroke-width: 1px;"/><path class="xgrid crisp" transform="translate(831.78,0)" d="M0,25v435" style="stroke: rgb(238, 238, 238); stroke-opacity: 1; stroke-width: 1px;"/><path class="xgrid crisp" transform="translate(979.07,0)" d="M0,25v435" style="stroke: rgb(238, 238, 238); stroke-opacity: 1; stroke-width: 1px;"/></g><g class="y"><path class="ygrid crisp" transform="translate(0,324.55)" d="M60,0h930" style="stroke: rgb(238, 238, 238); stroke-opacity: 1; stroke-width: 1px;"/><path class="ygrid crisp" transform="translate(0,244.51)" d="M60,0h930" style="stroke: rgb(238, 238, 238); stroke-opacity: 1; stroke-width: 1px;"/><path class="ygrid crisp" transform="translate(0,164.48)" d="M60,0h930" style="stroke: rgb(238, 238, 238); stroke-opacity: 1; stroke-width: 1px;"/><path class="ygrid crisp" transform="translate(0,84.45)" d="M60,0h930" style="stroke: rgb(238, 238, 238); stroke-opacity: 1; stroke-width: 1px;"/></g></g><g class="zerolinelayer"><path class="yzl zl crisp" transform="translate(0,404.58)" d="M60,0h930" style="stroke: rgb(68, 68, 68); stroke-opacity: 1; stroke-width: 1px;"/></g><path class="xlines-below"/><path class="ylines-below"/><g class="overlines-below"/><g class="xaxislayer-below"/><g class="yaxislayer-below"/><g class="overaxes-below"/><g class="plot" transform="translate(60, 25)"><g class="scatterlayer mlayer"><g class="trace scatter trace632abc" style="stroke-miterlimit: 2; opacity: 1;"><g class="fills" clip-path="url('#clip169894xyplot')"/><g class="errorbars"/><g class="lines"/><g class="points"><path class="point" transform="translate(470.72,285.87)" d="M1.89,0A1.89,1.89 0 1,1 0,-1.89A1.89,1.89 0 0,1 1.89,0Z" style="opacity: 1; stroke-width: 0px; fill: rgb(192, 0, 0); fill-opacity: 1;"/><path class="point" transform="translate(531.33,400.21)" d="M1.89,0A1.89,1.89 0 1,1 0,-1.89A1.89,1.89 0 0,1 1.89,0Z" style="opacity: 1; stroke-width: 0px; fill: rgb(192, 0, 0); fill-opacity: 1;"/><path class="point" transform="translate(672.13,266.9)" d="M1.89,0A1.89,1.89 0 1,1 0,-1.89A1.89,1.89 0 0,1 1.89,0Z" style="opacity: 1; stroke-width: 0px; fill: rgb(192, 0, 0); fill-opacity: 1;"/><path class="point" transform="translate(173.57,275.42)" d="M1.89,0A1.89,1.89 0 1,1 0,-1.89A1.89,1.89 0 0,1 1.89,0Z" style="opacity: 1; stroke-width: 0px; fill: rgb(192, 0, 0); fill-opacity: 1;"/><path class="point" transform="translate(567.65,367.38)" d="M1.89,0A1.89,1.89 0 1,1 0,-1.89A1.89,1.89 0 0,1 1.89,0Z" style="opacity: 1; stroke-width: 0px; fill: rgb(192, 0, 0); fill-opacity: 1;"/><path class="point" transform="translate(288.53,320.33)" d="M1.89,0A1.89,1.89 0 1,1 0,-1.89A1.89,1.89 0 0,1 1.89,0Z" style="opacity: 1; stroke-width: 0px; fill: rgb(192, 0, 0); fill-opacity: 1;"/><path class="point" transform="translate(638.08,371.39)" d="M1.89,0A1.89,1.89 0 1,1 0,-1.89A1.89,1.89 0 0,1 1.89,0Z" style="opacity: 1; stroke-width: 0px; fill: rgb(192, 0, 0); fill-opacity: 1;"/><path class="point" transform="translate(464.3,351.2)" d="M1.89,0A1.89,1.89 0 1,1 0,-1.89A1.89,1.89 0 0,1 1.89,0Z" style="opacity: 1; stroke-width: 0px; fill: rgb(192, 0, 0); fill-opacity: 1;"/><path class="point" transform="translate(187.7,334.13)" d="M1.89,0A1.89,1.89 0 1,1 0,-1.89A1.89,1.89 0 0,1 1.89,0Z" style="opacity: 1; stroke-width: 0px; fill: rgb(192, 0, 0); fill-opacity: 1;"/><path class="point" transform="translate(107.74,362.2)" d="M1.89,0A1.89,1.89 0 1,1 0,-1.89A1.89,1.89 0 0,1 1.89,0Z" style="opacity: 1; stroke-width: 0px; fill: rgb(192, 0, 0); fill-opacity: 1;"/><path class="point" transform="translate(244,333.4)" d="M1.89,0A1.89,1.89 0 1,1 0,-1.89A1.89,1.89 0 0,1 1.89,0Z" style="opacity: 1; stroke-width: 0px; fill: rgb(192, 0, 0); fill-opacity: 1;"/><path class="point" transform="translate(382.63,268.07)" d="M1.89,0A1.89,1.89 0 1,1 0,-1.89A1.89,1.89 0 0,1 1.89,0Z" style="opacity: 1; stroke-width: 0px; fill: rgb(192, 0, 0); fill-opacity: 1;"/><path class="point" transform="translate(644.35,299.55)" d="M1.89,0A1.89,1.89 0 1,1 0,-1.89A1.89,1.89 0 0,1 1.89,0Z" style="opacity: 1; stroke-width: 0px; fill: rgb(192, 0, 0); fill-opacity: 1;"/><path class="point" transform="translate(508.18,363.93)" d="M1.89,0A1.89,1.89 0 1,1 0,-1.89A1.89,1.89 0 0,1 1.89,0Z" style="opacity: 1; stroke-width: 0px; fill: rgb(192, 0, 0); fill-opacity: 1;"/><path class="point" transform="translate(632.98,340.14)" d="M1.89,0A1.89,1.89 0 1,1 0,-1.89A1.89,1.89 0 0,1 1.89,0Z" style="opacity: 1; stroke-width: 0px; fill: rgb(192, 0, 0); fill-opacity: 1;"/><path class="point" transform="translate(363.96,398.78)" d="M1.89,0A1.89,1.89 0 1,1 0,-1.89A1.89,1.89 0 0,1 1.89,0Z" style="opacity: 1; stroke-width: 0px; fill: rgb(192, 0, 0); fill-opacity: 1;"/><path class="point" transform="translate(49.5,338.86)" d="M1.89,0A1.89,1.89 0 1,1 0,-1.89A1.89,1.89 0 0,1 1.89,0Z" style="opacity: 1; stroke-width: 0px; fill: rgb(192, 0, 0); fill-opacity: 1;"/><path class="point" transform="translate(640.86,324.63)" d="M1.89,0A1.89,1.89 0 1,1 0,-1.89A1.89,1.89 0 0,1 1.89,0Z" style="opacity: 1; stroke-width: 0px; fill: rgb(192, 0, 0); fill-opacity: 1;"/><path class="point" transform="translate(216.76,341.36)" d="M1.89,0A1.89,1.89 0 1,1 0,-1.89A1.89,1.89 0 0,1 1.89,0Z" style="opacity: 1; stroke-width: 0px; fill: rgb(192, 0, 0); fill-opacity: 1;"/><path class="point" transform="translate(601.99,256.23)" d="M1.89,0A1.89,1.89 0 1,1 0,-1.89A1.89,1.89 0 0,1 1.89,0Z" style="opacity: 1; stroke-width: 0px; fill: rgb(192, 0, 0); fill-opacity: 1;"/><path class="point" transform="translate(238.73,408.9)" d="M1.89,0A1.89,1.89 0 1,1 0,-1.89A1.89,1.89 0 0,1 1.89,0Z" style="opacity: 1; stroke-width: 0px; fill: rgb(192, 0, 0); fill-opacity: 1;"/><path class="point" transform="translate(223.58,331.56)" d="M1.89,0A1.89,1.89 0 1,1 0,-1.89A1.89,1.89 0 0,1 1.89,0Z" style="opacity: 1; stroke-width: 0px; fill: rgb(192, 0, 0); fill-opacity: 1;"/><path class="point" transform="translate(880.5,396.96)" d="M1.89,0A1.89,1.89 0 1,1 0,-1.89A1.89,1.89 0 0,1 1.89,0Z" style="opacity: 1; stroke-width: 0px; fill: rgb(192, 0, 0); fill-opacity: 1;"/><path class="point" transform="translate(799.72,410.25)" d="M1.89,0A1.89,1.89 0 1,1 0,-1.89A1.89,1.89 0 0,1 1.89,0Z" style="opacity: 1; stroke-width: 0px; fill: rgb(192, 0, 0); fill-opacity: 1;"/><path class="point" transform="translate(723.13,409.08)" d="M1.89,0A1.89,1.89 0 1,1 0,-1.89A1.89,1.89 0 0,1 1.89,0Z" style="opacity: 1; stroke-width: 0px; fill: rgb(192, 0, 0); fill-opacity: 1;"/><path class="point" transform="translate(713.99,398.28)" d="M1.89,0A1.89,1.89 0 1,1 0,-1.89A1.89,1.89 0 0,1 1.89,0Z" style="opacity: 1; stroke-width: 0px; fill: rgb(192, 0, 0); fill-opacity: 1;"/><path class="point" transform="translate(457.01,292.05)" d="M1.89,0A1.89,1.89 0 1,1 0,-1.89A1.89,1.89 0 0,1 1.89,0Z" style="opacity: 1; stroke-width: 0px; fill: rgb(192, 0, 0); fill-opacity: 1;"/><path class="point" transform="translate(202.99,272.22)" d="M1.89,0A1.89,1.89 0 1,1 0,-1.89A1.89,1.89 0 0,1 1.89,0Z" style="opacity: 1; stroke-width: 0px; fill: rgb(192, 0, 0); fill-opacity: 1;"/><path class="point" transform="translate(461.42,245.76)" d="M1.89,0A1.89,1.89 0 1,1 0,-1.89A1.89,1.89 0 0,1 1.89,0Z" style="opacity: 1; stroke-width: 0px; fill: rgb(192, 0, 0); fill-opacity: 1;"/><path class="point" transform="translate(231.66,318.33)" d="M1.89,0A1.89,1.89 0 1,1 0,-1.89A1.89,1.89 0 0,1 1.89,0Z" style="opacity: 1; stroke-width: 0px; fill: rgb(192, 0, 0); fill-opacity: 1;"/><path class="point" transform="translate(294.62,333.5)" d="M1.89,0A1.89,1.89 0 1,1 0,-1.89A1.89,1.89 0 0,1 1.89,0Z" style="opacity: 1; stroke-width: 0px; fill: rgb(192, 0, 0); fill-opacity: 1;"/><path class="point" transform="translate(816.3,24.75)" d="M1.89,0A1.89,1.89 0 1,1 0,-1.89A1.89,1.89 0 0,1 1.89,0Z" style="opacity: 1; stroke-width: 0px; fill: rgb(192, 0, 0); fill-opacity: 1;"/><path class="point" transform="translate(573.71,90.64)" d="M1.89,0A1.89,1.89 0 1,1 0,-1.89A1.89,1.89 0 0,1 1.89,0Z" style="opacity: 1; stroke-width: 0px; fill: rgb(192, 0, 0); fill-opacity: 1;"/><path class="point" transform="translate(603.29,178.89)" d="M1.89,0A1.89,1.89 0 1,1 0,-1.89A1.89,1.89 0 0,1 1.89,0Z" style="opacity: 1; stroke-width: 0px; fill: rgb(192, 0, 0); fill-opacity: 1;"/></g><g class="text"><g class="textpoint" transform="translate(0,-31.8622047244375)"><text x="470.72" y="285.87" text-anchor="middle" style="font-family: 'Open Sans', verdana, arial, sans-serif; font-size: 10px; fill: rgb(0, 32, 96); fill-opacity: 1; white-space: pre;"><tspan class="line" dy="0em" x="470.72" y="285.87">1</tspan><tspan class="line" dy="1.3em" x="470.72" y="285.87">Serdemetan</tspan><tspan class="line" dy="2.6em" x="470.72" y="285.87"></tspan></text></g><g class="textpoint" transform="translate(0,-31.8622047244375)"><text x="531.33" y="400.21" text-anchor="middle" style="font-family: 'Open Sans', verdana, arial, sans-serif; font-size: 10px; fill: rgb(0, 32, 96); fill-opacity: 1; white-space: pre;"><tspan class="line" dy="0em" x="531.33" y="400.21">2</tspan><tspan class="line" dy="1.3em" x="531.33" y="400.21">BMS-387032</tspan><tspan class="line" dy="2.6em" x="531.33" y="400.21"></tspan></text></g><g class="textpoint" transform="translate(0,-31.8622047244375)"><text x="672.13" y="266.9" text-anchor="middle" style="font-family: 'Open Sans', verdana, arial, sans-serif; font-size: 10px; fill: rgb(0, 32, 96); fill-opacity: 1; white-space: pre;"><tspan class="line" dy="0em" x="672.13" y="266.9">3</tspan><tspan class="line" dy="1.3em" x="672.13" y="266.9">Ciclopirox</tspan><tspan class="line" dy="2.6em" x="672.13" y="266.9"></tspan></text></g><g class="textpoint" transform="translate(0,-31.8622047244375)"><text x="173.57" y="275.42" text-anchor="middle" style="font-family: 'Open Sans', verdana, arial, sans-serif; font-size: 10px; fill: rgb(0, 32, 96); fill-opacity: 1; white-space: pre;"><tspan class="line" dy="0em" x="173.57" y="275.42">4</tspan><tspan class="line" dy="1.3em" x="173.57" y="275.42">Racecadotril</tspan><tspan class="line" dy="2.6em" x="173.57" y="275.42"></tspan></text></g><g class="textpoint" transform="translate(0,-31.8622047244375)"><text x="567.65" y="367.38" text-anchor="middle" style="font-family: 'Open Sans', verdana, arial, sans-serif; font-size: 10px; fill: rgb(0, 32, 96); fill-opacity: 1; white-space: pre;"><tspan class="line" dy="0em" x="567.65" y="367.38">5</tspan><tspan class="line" dy="1.3em" x="567.65" y="367.38">Teniposide</tspan><tspan class="line" dy="2.6em" x="567.65" y="367.38"></tspan></text></g><g class="textpoint" transform="translate(0,-31.8622047244375)"><text x="288.53" y="320.33" text-anchor="middle" style="font-family: 'Open Sans', verdana, arial, sans-serif; font-size: 10px; fill: rgb(0, 32, 96); fill-opacity: 1; white-space: pre;"><tspan class="line" dy="0em" x="288.53" y="320.33">6</tspan><tspan class="line" dy="1.3em" x="288.53" y="320.33">Y-134</tspan><tspan class="line" dy="2.6em" x="288.53" y="320.33"></tspan></text></g><g class="textpoint" transform="translate(0,-31.8622047244375)"><text x="638.08" y="371.39" text-anchor="middle" style="font-family: 'Open Sans', verdana, arial, sans-serif; font-size: 10px; fill: rgb(0, 32, 96); fill-opacity: 1; white-space: pre;"><tspan class="line" dy="0em" x="638.08" y="371.39">7</tspan><tspan class="line" dy="1.3em" x="638.08" y="371.39">RS-17053</tspan><tspan class="line" dy="2.6em" x="638.08" y="371.39"></tspan></text></g><g class="textpoint" transform="translate(0,-31.8622047244375)"><text x="464.3" y="351.2" text-anchor="middle" style="font-family: 'Open Sans', verdana, arial, sans-serif; font-size: 10px; fill: rgb(0, 32, 96); fill-opacity: 1; white-space: pre;"><tspan class="line" dy="0em" x="464.3" y="351.2">8</tspan><tspan class="line" dy="1.3em" x="464.3" y="351.2">Digoxin</tspan><tspan class="line" dy="2.6em" x="464.3" y="351.2"></tspan></text></g><g class="textpoint" transform="translate(0,-31.8622047244375)"><text x="187.7" y="334.13" text-anchor="middle" style="font-family: 'Open Sans', verdana, arial, sans-serif; font-size: 10px; fill: rgb(0, 32, 96); fill-opacity: 1; white-space: pre;"><tspan class="line" dy="0em" x="187.7" y="334.13">9</tspan><tspan class="line" dy="1.3em" x="187.7" y="334.13">Medroxyprogesterone</tspan><tspan class="line" dy="2.6em" x="187.7" y="334.13"></tspan></text></g><g class="textpoint" transform="translate(0,-31.8622047244375)"><text x="107.74" y="362.2" text-anchor="middle" style="font-family: 'Open Sans', verdana, arial, sans-serif; font-size: 10px; fill: rgb(0, 32, 96); fill-opacity: 1; white-space: pre;"><tspan class="line" dy="0em" x="107.74" y="362.2">10</tspan><tspan class="line" dy="1.3em" x="107.74" y="362.2">Phloretin</tspan><tspan class="line" dy="2.6em" x="107.74" y="362.2"></tspan></text></g><g class="textpoint" transform="translate(0,-31.8622047244375)"><text x="244" y="333.4" text-anchor="middle" style="font-family: 'Open Sans', verdana, arial, sans-serif; font-size: 10px; fill: rgb(0, 32, 96); fill-opacity: 1; white-space: pre;"><tspan class="line" dy="0em" x="244" y="333.4">11</tspan><tspan class="line" dy="1.3em" x="244" y="333.4">Salmeterol</tspan><tspan class="line" dy="2.6em" x="244" y="333.4"></tspan></text></g><g class="textpoint" transform="translate(0,-31.8622047244375)"><text x="382.63" y="268.07" text-anchor="middle" style="font-family: 'Open Sans', verdana, arial, sans-serif; font-size: 10px; fill: rgb(0, 32, 96); fill-opacity: 1; white-space: pre;"><tspan class="line" dy="0em" x="382.63" y="268.07">12</tspan><tspan class="line" dy="1.3em" x="382.63" y="268.07">Saracatinib</tspan><tspan class="line" dy="2.6em" x="382.63" y="268.07"></tspan></text></g><g class="textpoint" transform="translate(0,-31.8622047244375)"><text x="644.35" y="299.55" text-anchor="middle" style="font-family: 'Open Sans', verdana, arial, sans-serif; font-size: 10px; fill: rgb(0, 32, 96); fill-opacity: 1; white-space: pre;"><tspan class="line" dy="0em" x="644.35" y="299.55">13</tspan><tspan class="line" dy="1.3em" x="644.35" y="299.55">Scriptaid</tspan><tspan class="line" dy="2.6em" x="644.35" y="299.55"></tspan></text></g><g class="textpoint" transform="translate(0,-31.8622047244375)"><text x="508.18" y="363.93" text-anchor="middle" style="font-family: 'Open Sans', verdana, arial, sans-serif; font-size: 10px; fill: rgb(0, 32, 96); fill-opacity: 1; white-space: pre;"><tspan class="line" dy="0em" x="508.18" y="363.93">14</tspan><tspan class="line" dy="1.3em" x="508.18" y="363.93">Leelamine</tspan><tspan class="line" dy="2.6em" x="508.18" y="363.93"></tspan></text></g><g class="textpoint" transform="translate(0,-31.8622047244375)"><text x="632.98" y="340.14" text-anchor="middle" style="font-family: 'Open Sans', verdana, arial, sans-serif; font-size: 10px; fill: rgb(0, 32, 96); fill-opacity: 1; white-space: pre;"><tspan class="line" dy="0em" x="632.98" y="340.14">15</tspan><tspan class="line" dy="1.3em" x="632.98" y="340.14">Actinomycin D</tspan><tspan class="line" dy="2.6em" x="632.98" y="340.14"></tspan></text></g><g class="textpoint" transform="translate(0,-31.8622047244375)"><text x="363.96" y="398.78" text-anchor="middle" style="font-family: 'Open Sans', verdana, arial, sans-serif; font-size: 10px; fill: rgb(0, 32, 96); fill-opacity: 1; white-space: pre;"><tspan class="line" dy="0em" x="363.96" y="398.78">16</tspan><tspan class="line" dy="1.3em" x="363.96" y="398.78">L-168</tspan><tspan class="line" dy="2.6em" x="363.96" y="398.78"></tspan></text></g><g class="textpoint" transform="translate(0,-31.8622047244375)"><text x="49.5" y="338.86" text-anchor="middle" style="font-family: 'Open Sans', verdana, arial, sans-serif; font-size: 10px; fill: rgb(0, 32, 96); fill-opacity: 1; white-space: pre;"><tspan class="line" dy="0em" x="49.5" y="338.86">17</tspan><tspan class="line" dy="1.3em" x="49.5" y="338.86">Triclosan</tspan><tspan class="line" dy="2.6em" x="49.5" y="338.86"></tspan></text></g><g class="textpoint" transform="translate(0,-31.8622047244375)"><text x="640.86" y="324.63" text-anchor="middle" style="font-family: 'Open Sans', verdana, arial, sans-serif; font-size: 10px; fill: rgb(0, 32, 96); fill-opacity: 1; white-space: pre;"><tspan class="line" dy="0em" x="640.86" y="324.63">18</tspan><tspan class="line" dy="1.3em" x="640.86" y="324.63">TW-37</tspan><tspan class="line" dy="2.6em" x="640.86" y="324.63"></tspan></text></g><g class="textpoint" transform="translate(0,-31.8622047244375)"><text x="216.76" y="341.36" text-anchor="middle" style="font-family: 'Open Sans', verdana, arial, sans-serif; font-size: 10px; fill: rgb(0, 32, 96); fill-opacity: 1; white-space: pre;"><tspan class="line" dy="0em" x="216.76" y="341.36">19</tspan><tspan class="line" dy="1.3em" x="216.76" y="341.36">Maprotiline</tspan><tspan class="line" dy="2.6em" x="216.76" y="341.36"></tspan></text></g><g class="textpoint" transform="translate(0,-31.8622047244375)"><text x="601.99" y="256.23" text-anchor="middle" style="font-family: 'Open Sans', verdana, arial, sans-serif; font-size: 10px; fill: rgb(0, 32, 96); fill-opacity: 1; white-space: pre;"><tspan class="line" dy="0em" x="601.99" y="256.23">20</tspan><tspan class="line" dy="1.3em" x="601.99" y="256.23">Dibenzazepine</tspan><tspan class="line" dy="2.6em" x="601.99" y="256.23"></tspan></text></g><g class="textpoint" transform="translate(0,-31.8622047244375)"><text x="238.73" y="408.9" text-anchor="middle" style="font-family: 'Open Sans', verdana, arial, sans-serif; font-size: 10px; fill: rgb(0, 32, 96); fill-opacity: 1; white-space: pre;"><tspan class="line" dy="0em" x="238.73" y="408.9">21</tspan><tspan class="line" dy="1.3em" x="238.73" y="408.9">Ursolic acid</tspan><tspan class="line" dy="2.6em" x="238.73" y="408.9"></tspan></text></g><g class="textpoint" transform="translate(0,-31.8622047244375)"><text x="223.58" y="331.56" text-anchor="middle" style="font-family: 'Open Sans', verdana, arial, sans-serif; font-size: 10px; fill: rgb(0, 32, 96); fill-opacity: 1; white-space: pre;"><tspan class="line" dy="0em" x="223.58" y="331.56">22</tspan><tspan class="line" dy="1.3em" x="223.58" y="331.56">Semagacestat</tspan><tspan class="line" dy="2.6em" x="223.58" y="331.56"></tspan></text></g><g class="textpoint" transform="translate(0,-31.8622047244375)"><text x="880.5" y="396.96" text-anchor="middle" style="font-family: 'Open Sans', verdana, arial, sans-serif; font-size: 10px; fill: rgb(0, 32, 96); fill-opacity: 1; white-space: pre;"><tspan class="line" dy="0em" x="880.5" y="396.96">23</tspan><tspan class="line" dy="1.3em" x="880.5" y="396.96">Entinostat</tspan><tspan class="line" dy="2.6em" x="880.5" y="396.96">TB32048</tspan></text></g><g class="textpoint" transform="translate(0,-31.8622047244375)"><text x="799.72" y="410.25" text-anchor="middle" style="font-family: 'Open Sans', verdana, arial, sans-serif; font-size: 10px; fill: rgb(0, 32, 96); fill-opacity: 1; white-space: pre;"><tspan class="line" dy="0em" x="799.72" y="410.25">24</tspan><tspan class="line" dy="1.3em" x="799.72" y="410.25">Entinostat</tspan><tspan class="line" dy="2.6em" x="799.72" y="410.25">K8484</tspan></text></g><g class="textpoint" transform="translate(0,-31.8622047244375)"><text x="723.13" y="409.08" text-anchor="middle" style="font-family: 'Open Sans', verdana, arial, sans-serif; font-size: 10px; fill: rgb(0, 32, 96); fill-opacity: 1; white-space: pre;"><tspan class="line" dy="0em" x="723.13" y="409.08">25</tspan><tspan class="line" dy="1.3em" x="723.13" y="409.08">Entinostat</tspan><tspan class="line" dy="2.6em" x="723.13" y="409.08">HPAF-II</tspan></text></g><g class="textpoint" transform="translate(0,-31.8622047244375)"><text x="713.99" y="398.28" text-anchor="middle" style="font-family: 'Open Sans', verdana, arial, sans-serif; font-size: 10px; fill: rgb(0, 32, 96); fill-opacity: 1; white-space: pre;"><tspan class="line" dy="0em" x="713.99" y="398.28">26</tspan><tspan class="line" dy="1.3em" x="713.99" y="398.28">Entinostat</tspan><tspan class="line" dy="2.6em" x="713.99" y="398.28">MIA PaCa-2</tspan></text></g><g class="textpoint" transform="translate(0,-31.8622047244375)"><text x="457.01" y="292.05" text-anchor="middle" style="font-family: 'Open Sans', verdana, arial, sans-serif; font-size: 10px; fill: rgb(0, 32, 96); fill-opacity: 1; white-space: pre;"><tspan class="line" dy="0em" x="457.01" y="292.05">27</tspan><tspan class="line" dy="1.3em" x="457.01" y="292.05">Palbociclib</tspan><tspan class="line" dy="2.6em" x="457.01" y="292.05"></tspan></text></g><g class="textpoint" transform="translate(0,-31.8622047244375)"><text x="202.99" y="272.22" text-anchor="middle" style="font-family: 'Open Sans', verdana, arial, sans-serif; font-size: 10px; fill: rgb(0, 32, 96); fill-opacity: 1; white-space: pre;"><tspan class="line" dy="0em" x="202.99" y="272.22">28</tspan><tspan class="line" dy="1.3em" x="202.99" y="272.22">STK525924</tspan><tspan class="line" dy="2.6em" x="202.99" y="272.22"></tspan></text></g><g class="textpoint" transform="translate(0,-31.8622047244375)"><text x="461.42" y="245.76" text-anchor="middle" style="font-family: 'Open Sans', verdana, arial, sans-serif; font-size: 10px; fill: rgb(0, 32, 96); fill-opacity: 1; white-space: pre;"><tspan class="line" dy="0em" x="461.42" y="245.76">29</tspan><tspan class="line" dy="1.3em" x="461.42" y="245.76">BX-795</tspan><tspan class="line" dy="2.6em" x="461.42" y="245.76"></tspan></text></g><g class="textpoint" transform="translate(0,-31.8622047244375)"><text x="231.66" y="318.33" text-anchor="middle" style="font-family: 'Open Sans', verdana, arial, sans-serif; font-size: 10px; fill: rgb(0, 32, 96); fill-opacity: 1; white-space: pre;"><tspan class="line" dy="0em" x="231.66" y="318.33">30</tspan><tspan class="line" dy="1.3em" x="231.66" y="318.33">Clofarabine</tspan><tspan class="line" dy="2.6em" x="231.66" y="318.33"></tspan></text></g><g class="textpoint" transform="translate(0,-31.8622047244375)"><text x="294.62" y="333.5" text-anchor="middle" style="font-family: 'Open Sans', verdana, arial, sans-serif; font-size: 10px; fill: rgb(0, 32, 96); fill-opacity: 1; white-space: pre;"><tspan class="line" dy="0em" x="294.62" y="333.5">31</tspan><tspan class="line" dy="1.3em" x="294.62" y="333.5">Tacedinaline</tspan><tspan class="line" dy="2.6em" x="294.62" y="333.5"></tspan></text></g><g class="textpoint" transform="translate(0,-31.8622047244375)"><text x="816.3" y="24.75" text-anchor="middle" style="font-family: 'Open Sans', verdana, arial, sans-serif; font-size: 10px; fill: rgb(0, 32, 96); fill-opacity: 1; white-space: pre;"><tspan class="line" dy="0em" x="816.3" y="24.75">32</tspan><tspan class="line" dy="1.3em" x="816.3" y="24.75">Entinostat</tspan><tspan class="line" dy="2.6em" x="816.3" y="24.75">PANC-1</tspan></text></g><g class="textpoint" transform="translate(0,-31.8622047244375)"><text x="573.71" y="90.64" text-anchor="middle" style="font-family: 'Open Sans', verdana, arial, sans-serif; font-size: 10px; fill: rgb(0, 32, 96); fill-opacity: 1; white-space: pre;"><tspan class="line" dy="0em" x="573.71" y="90.64">33</tspan><tspan class="line" dy="1.3em" x="573.71" y="90.64">Loperamide</tspan><tspan class="line" dy="2.6em" x="573.71" y="90.64"></tspan></text></g><g class="textpoint" transform="translate(0,-31.8622047244375)"><text x="603.29" y="178.89" text-anchor="middle" style="font-family: 'Open Sans', verdana, arial, sans-serif; font-size: 10px; fill: rgb(0, 32, 96); fill-opacity: 1; white-space: pre;"><tspan class="line" dy="0em" x="603.29" y="178.89">34</tspan><tspan class="line" dy="1.3em" x="603.29" y="178.89">Thioridazine</tspan><tspan class="line" dy="2.6em" x="603.29" y="178.89"></tspan></text></g></g></g></g></g><g class="overplot"/><path class="xlines-above crisp" d="M0,0" style="fill: none;"/><path class="ylines-above crisp" d="M0,0" style="fill: none;"/><g class="overlines-above"/><g class="xaxislayer-above"><g class="xtick"><text text-anchor="middle" x="0" y="473" transform="translate(95.32,0)" style="font-family: arial; font-size: 12px; fill: rgb(68, 68, 68); fill-opacity: 1; white-space: pre;">20</text></g><g class="xtick"><text text-anchor="middle" x="0" y="473" transform="translate(242.61,0)" style="font-family: arial; font-size: 12px; fill: rgb(68, 68, 68); fill-opacity: 1; white-space: pre;">30</text></g><g class="xtick"><text text-anchor="middle" x="0" y="473" transform="translate(389.9,0)" style="font-family: arial; font-size: 12px; fill: rgb(68, 68, 68); fill-opacity: 1; white-space: pre;">40</text></g><g class="xtick"><text text-anchor="middle" x="0" y="473" transform="translate(537.19,0)" style="font-family: arial; font-size: 12px; fill: rgb(68, 68, 68); fill-opacity: 1; white-space: pre;">50</text></g><g class="xtick"><text text-anchor="middle" x="0" y="473" transform="translate(684.48,0)" style="font-family: arial; font-size: 12px; fill: rgb(68, 68, 68); fill-opacity: 1; white-space: pre;">60</text></g><g class="xtick"><text text-anchor="middle" x="0" y="473" transform="translate(831.78,0)" style="font-family: arial; font-size: 12px; fill: rgb(68, 68, 68); fill-opacity: 1; white-space: pre;">70</text></g><g class="xtick"><text text-anchor="middle" x="0" y="473" transform="translate(979.07,0)" style="font-family: arial; font-size: 12px; fill: rgb(68, 68, 68); fill-opacity: 1; white-space: pre;">80</text></g></g><g class="yaxislayer-above"><g class="ytick"><text text-anchor="end" x="59" y="4.199999999999999" transform="translate(0,404.58)" style="font-family: arial; font-size: 12px; fill: rgb(68, 68, 68); fill-opacity: 1; white-space: pre;">0</text></g><g class="ytick"><text text-anchor="end" x="59" y="4.199999999999999" transform="translate(0,324.55)" style="font-family: arial; font-size: 12px; fill: rgb(68, 68, 68); fill-opacity: 1; white-space: pre;">5</text></g><g class="ytick"><text text-anchor="end" x="59" y="4.199999999999999" transform="translate(0,244.51)" style="font-family: arial; font-size: 12px; fill: rgb(68, 68, 68); fill-opacity: 1; white-space: pre;">10</text></g><g class="ytick"><text text-anchor="end" x="59" y="4.199999999999999" transform="translate(0,164.48)" style="font-family: arial; font-size: 12px; fill: rgb(68, 68, 68); fill-opacity: 1; white-space: pre;">15</text></g><g class="ytick"><text text-anchor="end" x="59" y="4.199999999999999" transform="translate(0,84.45)" style="font-family: arial; font-size: 12px; fill: rgb(68, 68, 68); fill-opacity: 1; white-space: pre;">20</text></g></g><g class="overaxes-above"/></g></g><g class="polarlayer"/><g class="ternarylayer"/><g class="geolayer"/><g class="funnelarealayer"/><g class="pielayer"/><g class="treemaplayer"/><g class="sunburstlayer"/><g class="glimages"/><defs id="topdefs-169894"><g class="clips"/></defs><g class="layer-above"><g class="imagelayer"/><g class="shapelayer"/></g><g class="infolayer"><g class="g-gtitle"><text class="gtitle" x="500" y="5" text-anchor="middle" dy="0.7em" style="font-family: 'Open Sans', verdana, arial, sans-serif; font-size: 17px; fill: rgb(68, 68, 68); opacity: 1; font-weight: normal; white-space: pre;"><tspan style="font-weight:bold">Loewe - CSS</tspan></text></g><g class="g-xtitle" transform="translate(0,-15)"><text class="xtitle" x="525" y="512" text-anchor="middle" style="font-family: 'Open Sans', verdana, arial, sans-serif; font-size: 14px; fill: rgb(68, 68, 68); opacity: 1; font-weight: normal; white-space: pre;"><tspan style="font-style:italic">Combination Sensitivity Score</tspan></text></g><g class="g-ytitle"><text class="ytitle" transform="rotate(-90,22,242.5)" x="22" y="242.5" text-anchor="middle" style="font-family: 'Open Sans', verdana, arial, sans-serif; font-size: 14px; fill: rgb(68, 68, 68); opacity: 1; font-weight: normal; white-space: pre;"><tspan style="font-style:italic">Synergy Score</tspan></text></g></g></svg>