<svg class="main-svg" xmlns="http://www.w3.org/2000/svg" xmlns:xlink="http://www.w3.org/1999/xlink" width="1000" height="500" style="" viewBox="0 0 1000 500"><rect x="0" y="0" width="1000" height="500" style="fill: rgb(255, 255, 255); fill-opacity: 1;"/><defs id="defs-05505d"><g class="clips"><clipPath id="clip05505dxyplot" class="plotclip"><rect width="930" height="435"/></clipPath><clipPath class="axesclip" id="clip05505dx"><rect x="60" y="0" width="930" height="500"/></clipPath><clipPath class="axesclip" id="clip05505dy"><rect x="0" y="25" width="1000" height="435"/></clipPath><clipPath class="axesclip" id="clip05505dxy"><rect x="60" y="25" width="930" height="435"/></clipPath></g><g class="gradients"/></defs><g class="bglayer"/><g class="layer-below"><g class="imagelayer"/><g class="shapelayer"/></g><g class="cartesianlayer"><g class="subplot xy"><g class="layer-subplot"><g class="shapelayer"/><g class="imagelayer"/></g><g class="gridlayer"><g class="x"><path class="xgrid crisp" transform="translate(95.32,0)" d="M0,25v435" style="stroke: rgb(238, 238, 238); stroke-opacity: 1; stroke-width: 1px;"/><path class="xgrid crisp" transform="translate(242.61,0)" d="M0,25v435" style="stroke: rgb(238, 238, 238); stroke-opacity: 1; stroke-width: 1px;"/><path class="xgrid crisp" transform="translate(389.9,0)" d="M0,25v435" style="stroke: rgb(238, 238, 238); stroke-opacity: 1; stroke-width: 1px;"/><path class="xgrid crisp" transform="translate(537.19,0)" d="M0,25v435" style="stroke: rgb(238, 238, 238); stroke-opacity: 1; stroke-width: 1px;"/><path class="xgrid crisp" transform="translate(684.48,0)" d="M0,25v435" style="stroke: rgb(238, 238, 238); stroke-opacity: 1; stroke-width: 1px;"/><path class="xgrid crisp" transform="translate(831.78,0)" d="M0,25v435" style="stroke: rgb(238, 238, 238); stroke-opacity: 1; stroke-width: 1px;"/><path class="xgrid crisp" transform="translate(979.07,0)" d="M0,25v435" style="stroke: rgb(238, 238, 238); stroke-opacity: 1; stroke-width: 1px;"/></g><g class="y"><path class="ygrid crisp" transform="translate(0,422.19)" d="M60,0h930" style="stroke: rgb(238, 238, 238); stroke-opacity: 1; stroke-width: 1px;"/><path class="ygrid crisp" transform="translate(0,340.57)" d="M60,0h930" style="stroke: rgb(238, 238, 238); stroke-opacity: 1; stroke-width: 1px;"/><path class="ygrid crisp" transform="translate(0,177.32)" d="M60,0h930" style="stroke: rgb(238, 238, 238); stroke-opacity: 1; stroke-width: 1px;"/><path class="ygrid crisp" transform="translate(0,95.69)" d="M60,0h930" style="stroke: rgb(238, 238, 238); stroke-opacity: 1; stroke-width: 1px;"/></g></g><g class="zerolinelayer"><path class="yzl zl crisp" transform="translate(0,258.94)" d="M60,0h930" style="stroke: rgb(68, 68, 68); stroke-opacity: 1; stroke-width: 1px;"/></g><path class="xlines-below"/><path class="ylines-below"/><g class="overlines-below"/><g class="xaxislayer-below"/><g class="yaxislayer-below"/><g class="overaxes-below"/><g class="plot" transform="translate(60, 25)"><g class="scatterlayer mlayer"><g class="trace scatter traceb7d446" style="stroke-miterlimit: 2; opacity: 1;"><g class="fills" clip-path="url('#clip05505dxyplot')"/><g class="errorbars"/><g class="lines"/><g class="points"><path class="point" transform="translate(470.72,240.19)" d="M1.89,0A1.89,1.89 0 1,1 0,-1.89A1.89,1.89 0 0,1 1.89,0Z" style="opacity: 1; stroke-width: 0px; fill: rgb(192, 0, 0); fill-opacity: 1;"/><path class="point" transform="translate(531.33,358.11)" d="M1.89,0A1.89,1.89 0 1,1 0,-1.89A1.89,1.89 0 0,1 1.89,0Z" style="opacity: 1; stroke-width: 0px; fill: rgb(192, 0, 0); fill-opacity: 1;"/><path class="point" transform="translate(672.13,193.48)" d="M1.89,0A1.89,1.89 0 1,1 0,-1.89A1.89,1.89 0 0,1 1.89,0Z" style="opacity: 1; stroke-width: 0px; fill: rgb(192, 0, 0); fill-opacity: 1;"/><path class="point" transform="translate(173.57,147.78)" d="M1.89,0A1.89,1.89 0 1,1 0,-1.89A1.89,1.89 0 0,1 1.89,0Z" style="opacity: 1; stroke-width: 0px; fill: rgb(192, 0, 0); fill-opacity: 1;"/><path class="point" transform="translate(567.65,347.55)" d="M1.89,0A1.89,1.89 0 1,1 0,-1.89A1.89,1.89 0 0,1 1.89,0Z" style="opacity: 1; stroke-width: 0px; fill: rgb(192, 0, 0); fill-opacity: 1;"/><path class="point" transform="translate(288.53,257.13)" d="M1.89,0A1.89,1.89 0 1,1 0,-1.89A1.89,1.89 0 0,1 1.89,0Z" style="opacity: 1; stroke-width: 0px; fill: rgb(192, 0, 0); fill-opacity: 1;"/><path class="point" transform="translate(638.08,284.48)" d="M1.89,0A1.89,1.89 0 1,1 0,-1.89A1.89,1.89 0 0,1 1.89,0Z" style="opacity: 1; stroke-width: 0px; fill: rgb(192, 0, 0); fill-opacity: 1;"/><path class="point" transform="translate(464.3,251.78)" d="M1.89,0A1.89,1.89 0 1,1 0,-1.89A1.89,1.89 0 0,1 1.89,0Z" style="opacity: 1; stroke-width: 0px; fill: rgb(192, 0, 0); fill-opacity: 1;"/><path class="point" transform="translate(187.7,321.94)" d="M1.89,0A1.89,1.89 0 1,1 0,-1.89A1.89,1.89 0 0,1 1.89,0Z" style="opacity: 1; stroke-width: 0px; fill: rgb(192, 0, 0); fill-opacity: 1;"/><path class="point" transform="translate(107.74,221.74)" d="M1.89,0A1.89,1.89 0 1,1 0,-1.89A1.89,1.89 0 0,1 1.89,0Z" style="opacity: 1; stroke-width: 0px; fill: rgb(192, 0, 0); fill-opacity: 1;"/><path class="point" transform="translate(244,317.11)" d="M1.89,0A1.89,1.89 0 1,1 0,-1.89A1.89,1.89 0 0,1 1.89,0Z" style="opacity: 1; stroke-width: 0px; fill: rgb(192, 0, 0); fill-opacity: 1;"/><path class="point" transform="translate(382.63,151.36)" d="M1.89,0A1.89,1.89 0 1,1 0,-1.89A1.89,1.89 0 0,1 1.89,0Z" style="opacity: 1; stroke-width: 0px; fill: rgb(192, 0, 0); fill-opacity: 1;"/><path class="point" transform="translate(644.35,261.17)" d="M1.89,0A1.89,1.89 0 1,1 0,-1.89A1.89,1.89 0 0,1 1.89,0Z" style="opacity: 1; stroke-width: 0px; fill: rgb(192, 0, 0); fill-opacity: 1;"/><path class="point" transform="translate(508.18,361.25)" d="M1.89,0A1.89,1.89 0 1,1 0,-1.89A1.89,1.89 0 0,1 1.89,0Z" style="opacity: 1; stroke-width: 0px; fill: rgb(192, 0, 0); fill-opacity: 1;"/><path class="point" transform="translate(632.98,279.21)" d="M1.89,0A1.89,1.89 0 1,1 0,-1.89A1.89,1.89 0 0,1 1.89,0Z" style="opacity: 1; stroke-width: 0px; fill: rgb(192, 0, 0); fill-opacity: 1;"/><path class="point" transform="translate(363.96,340.87)" d="M1.89,0A1.89,1.89 0 1,1 0,-1.89A1.89,1.89 0 0,1 1.89,0Z" style="opacity: 1; stroke-width: 0px; fill: rgb(192, 0, 0); fill-opacity: 1;"/><path class="point" transform="translate(49.5,209.25)" d="M1.89,0A1.89,1.89 0 1,1 0,-1.89A1.89,1.89 0 0,1 1.89,0Z" style="opacity: 1; stroke-width: 0px; fill: rgb(192, 0, 0); fill-opacity: 1;"/><path class="point" transform="translate(640.86,286.68)" d="M1.89,0A1.89,1.89 0 1,1 0,-1.89A1.89,1.89 0 0,1 1.89,0Z" style="opacity: 1; stroke-width: 0px; fill: rgb(192, 0, 0); fill-opacity: 1;"/><path class="point" transform="translate(216.76,271.05)" d="M1.89,0A1.89,1.89 0 1,1 0,-1.89A1.89,1.89 0 0,1 1.89,0Z" style="opacity: 1; stroke-width: 0px; fill: rgb(192, 0, 0); fill-opacity: 1;"/><path class="point" transform="translate(601.99,203.75)" d="M1.89,0A1.89,1.89 0 1,1 0,-1.89A1.89,1.89 0 0,1 1.89,0Z" style="opacity: 1; stroke-width: 0px; fill: rgb(192, 0, 0); fill-opacity: 1;"/><path class="point" transform="translate(238.73,410.25)" d="M1.89,0A1.89,1.89 0 1,1 0,-1.89A1.89,1.89 0 0,1 1.89,0Z" style="opacity: 1; stroke-width: 0px; fill: rgb(192, 0, 0); fill-opacity: 1;"/><path class="point" transform="translate(223.58,288.96)" d="M1.89,0A1.89,1.89 0 1,1 0,-1.89A1.89,1.89 0 0,1 1.89,0Z" style="opacity: 1; stroke-width: 0px; fill: rgb(192, 0, 0); fill-opacity: 1;"/><path class="point" transform="translate(880.5,251.1)" d="M1.89,0A1.89,1.89 0 1,1 0,-1.89A1.89,1.89 0 0,1 1.89,0Z" style="opacity: 1; stroke-width: 0px; fill: rgb(192, 0, 0); fill-opacity: 1;"/><path class="point" transform="translate(799.72,254.82)" d="M1.89,0A1.89,1.89 0 1,1 0,-1.89A1.89,1.89 0 0,1 1.89,0Z" style="opacity: 1; stroke-width: 0px; fill: rgb(192, 0, 0); fill-opacity: 1;"/><path class="point" transform="translate(723.13,346.78)" d="M1.89,0A1.89,1.89 0 1,1 0,-1.89A1.89,1.89 0 0,1 1.89,0Z" style="opacity: 1; stroke-width: 0px; fill: rgb(192, 0, 0); fill-opacity: 1;"/><path class="point" transform="translate(713.99,213.29)" d="M1.89,0A1.89,1.89 0 1,1 0,-1.89A1.89,1.89 0 0,1 1.89,0Z" style="opacity: 1; stroke-width: 0px; fill: rgb(192, 0, 0); fill-opacity: 1;"/><path class="point" transform="translate(457.01,249.02)" d="M1.89,0A1.89,1.89 0 1,1 0,-1.89A1.89,1.89 0 0,1 1.89,0Z" style="opacity: 1; stroke-width: 0px; fill: rgb(192, 0, 0); fill-opacity: 1;"/><path class="point" transform="translate(202.99,24.75)" d="M1.89,0A1.89,1.89 0 1,1 0,-1.89A1.89,1.89 0 0,1 1.89,0Z" style="opacity: 1; stroke-width: 0px; fill: rgb(192, 0, 0); fill-opacity: 1;"/><path class="point" transform="translate(461.42,185.72)" d="M1.89,0A1.89,1.89 0 1,1 0,-1.89A1.89,1.89 0 0,1 1.89,0Z" style="opacity: 1; stroke-width: 0px; fill: rgb(192, 0, 0); fill-opacity: 1;"/><path class="point" transform="translate(231.66,238.92)" d="M1.89,0A1.89,1.89 0 1,1 0,-1.89A1.89,1.89 0 0,1 1.89,0Z" style="opacity: 1; stroke-width: 0px; fill: rgb(192, 0, 0); fill-opacity: 1;"/><path class="point" transform="translate(294.62,252.89)" d="M1.89,0A1.89,1.89 0 1,1 0,-1.89A1.89,1.89 0 0,1 1.89,0Z" style="opacity: 1; stroke-width: 0px; fill: rgb(192, 0, 0); fill-opacity: 1;"/><path class="point" transform="translate(816.3,51.59)" d="M1.89,0A1.89,1.89 0 1,1 0,-1.89A1.89,1.89 0 0,1 1.89,0Z" style="opacity: 1; stroke-width: 0px; fill: rgb(192, 0, 0); fill-opacity: 1;"/><path class="point" transform="translate(573.71,48.07)" d="M1.89,0A1.89,1.89 0 1,1 0,-1.89A1.89,1.89 0 0,1 1.89,0Z" style="opacity: 1; stroke-width: 0px; fill: rgb(192, 0, 0); fill-opacity: 1;"/><path class="point" transform="translate(603.29,139.49)" d="M1.89,0A1.89,1.89 0 1,1 0,-1.89A1.89,1.89 0 0,1 1.89,0Z" style="opacity: 1; stroke-width: 0px; fill: rgb(192, 0, 0); fill-opacity: 1;"/></g><g class="text"><g class="textpoint" transform="translate(0,-31.8622047244375)"><text x="470.72" y="240.19" text-anchor="middle" style="font-family: 'Open Sans', verdana, arial, sans-serif; font-size: 10px; fill: rgb(0, 32, 96); fill-opacity: 1; white-space: pre;"><tspan class="line" dy="0em" x="470.72" y="240.19">1</tspan><tspan class="line" dy="1.3em" x="470.72" y="240.19">Serdemetan</tspan><tspan class="line" dy="2.6em" x="470.72" y="240.19"></tspan></text></g><g class="textpoint" transform="translate(0,-31.8622047244375)"><text x="531.33" y="358.11" text-anchor="middle" style="font-family: 'Open Sans', verdana, arial, sans-serif; font-size: 10px; fill: rgb(0, 32, 96); fill-opacity: 1; white-space: pre;"><tspan class="line" dy="0em" x="531.33" y="358.11">2</tspan><tspan class="line" dy="1.3em" x="531.33" y="358.11">BMS-387032</tspan><tspan class="line" dy="2.6em" x="531.33" y="358.11"></tspan></text></g><g class="textpoint" transform="translate(0,-31.8622047244375)"><text x="672.13" y="193.48" text-anchor="middle" style="font-family: 'Open Sans', verdana, arial, sans-serif; font-size: 10px; fill: rgb(0, 32, 96); fill-opacity: 1; white-space: pre;"><tspan class="line" dy="0em" x="672.13" y="193.48">3</tspan><tspan class="line" dy="1.3em" x="672.13" y="193.48">Ciclopirox</tspan><tspan class="line" dy="2.6em" x="672.13" y="193.48"></tspan></text></g><g class="textpoint" transform="translate(0,-31.8622047244375)"><text x="173.57" y="147.78" text-anchor="middle" style="font-family: 'Open Sans', verdana, arial, sans-serif; font-size: 10px; fill: rgb(0, 32, 96); fill-opacity: 1; white-space: pre;"><tspan class="line" dy="0em" x="173.57" y="147.78">4</tspan><tspan class="line" dy="1.3em" x="173.57" y="147.78">Racecadotril</tspan><tspan class="line" dy="2.6em" x="173.57" y="147.78"></tspan></text></g><g class="textpoint" transform="translate(0,-31.8622047244375)"><text x="567.65" y="347.55" text-anchor="middle" style="font-family: 'Open Sans', verdana, arial, sans-serif; font-size: 10px; fill: rgb(0, 32, 96); fill-opacity: 1; white-space: pre;"><tspan class="line" dy="0em" x="567.65" y="347.55">5</tspan><tspan class="line" dy="1.3em" x="567.65" y="347.55">Teniposide</tspan><tspan class="line" dy="2.6em" x="567.65" y="347.55"></tspan></text></g><g class="textpoint" transform="translate(0,-31.8622047244375)"><text x="288.53" y="257.13" text-anchor="middle" style="font-family: 'Open Sans', verdana, arial, sans-serif; font-size: 10px; fill: rgb(0, 32, 96); fill-opacity: 1; white-space: pre;"><tspan class="line" dy="0em" x="288.53" y="257.13">6</tspan><tspan class="line" dy="1.3em" x="288.53" y="257.13">Y-134</tspan><tspan class="line" dy="2.6em" x="288.53" y="257.13"></tspan></text></g><g class="textpoint" transform="translate(0,-31.8622047244375)"><text x="638.08" y="284.48" text-anchor="middle" style="font-family: 'Open Sans', verdana, arial, sans-serif; font-size: 10px; fill: rgb(0, 32, 96); fill-opacity: 1; white-space: pre;"><tspan class="line" dy="0em" x="638.08" y="284.48">7</tspan><tspan class="line" dy="1.3em" x="638.08" y="284.48">RS-17053</tspan><tspan class="line" dy="2.6em" x="638.08" y="284.48"></tspan></text></g><g class="textpoint" transform="translate(0,-31.8622047244375)"><text x="464.3" y="251.78" text-anchor="middle" style="font-family: 'Open Sans', verdana, arial, sans-serif; font-size: 10px; fill: rgb(0, 32, 96); fill-opacity: 1; white-space: pre;"><tspan class="line" dy="0em" x="464.3" y="251.78">8</tspan><tspan class="line" dy="1.3em" x="464.3" y="251.78">Digoxin</tspan><tspan class="line" dy="2.6em" x="464.3" y="251.78"></tspan></text></g><g class="textpoint" transform="translate(0,-31.8622047244375)"><text x="187.7" y="321.94" text-anchor="middle" style="font-family: 'Open Sans', verdana, arial, sans-serif; font-size: 10px; fill: rgb(0, 32, 96); fill-opacity: 1; white-space: pre;"><tspan class="line" dy="0em" x="187.7" y="321.94">9</tspan><tspan class="line" dy="1.3em" x="187.7" y="321.94">Medroxyprogesterone</tspan><tspan class="line" dy="2.6em" x="187.7" y="321.94"></tspan></text></g><g class="textpoint" transform="translate(0,-31.8622047244375)"><text x="107.74" y="221.74" text-anchor="middle" style="font-family: 'Open Sans', verdana, arial, sans-serif; font-size: 10px; fill: rgb(0, 32, 96); fill-opacity: 1; white-space: pre;"><tspan class="line" dy="0em" x="107.74" y="221.74">10</tspan><tspan class="line" dy="1.3em" x="107.74" y="221.74">Phloretin</tspan><tspan class="line" dy="2.6em" x="107.74" y="221.74"></tspan></text></g><g class="textpoint" transform="translate(0,-31.8622047244375)"><text x="244" y="317.11" text-anchor="middle" style="font-family: 'Open Sans', verdana, arial, sans-serif; font-size: 10px; fill: rgb(0, 32, 96); fill-opacity: 1; white-space: pre;"><tspan class="line" dy="0em" x="244" y="317.11">11</tspan><tspan class="line" dy="1.3em" x="244" y="317.11">Salmeterol</tspan><tspan class="line" dy="2.6em" x="244" y="317.11"></tspan></text></g><g class="textpoint" transform="translate(0,-31.8622047244375)"><text x="382.63" y="151.36" text-anchor="middle" style="font-family: 'Open Sans', verdana, arial, sans-serif; font-size: 10px; fill: rgb(0, 32, 96); fill-opacity: 1; white-space: pre;"><tspan class="line" dy="0em" x="382.63" y="151.36">12</tspan><tspan class="line" dy="1.3em" x="382.63" y="151.36">Saracatinib</tspan><tspan class="line" dy="2.6em" x="382.63" y="151.36"></tspan></text></g><g class="textpoint" transform="translate(0,-31.8622047244375)"><text x="644.35" y="261.17" text-anchor="middle" style="font-family: 'Open Sans', verdana, arial, sans-serif; font-size: 10px; fill: rgb(0, 32, 96); fill-opacity: 1; white-space: pre;"><tspan class="line" dy="0em" x="644.35" y="261.17">13</tspan><tspan class="line" dy="1.3em" x="644.35" y="261.17">Scriptaid</tspan><tspan class="line" dy="2.6em" x="644.35" y="261.17"></tspan></text></g><g class="textpoint" transform="translate(0,-31.8622047244375)"><text x="508.18" y="361.25" text-anchor="middle" style="font-family: 'Open Sans', verdana, arial, sans-serif; font-size: 10px; fill: rgb(0, 32, 96); fill-opacity: 1; white-space: pre;"><tspan class="line" dy="0em" x="508.18" y="361.25">14</tspan><tspan class="line" dy="1.3em" x="508.18" y="361.25">Leelamine</tspan><tspan class="line" dy="2.6em" x="508.18" y="361.25"></tspan></text></g><g class="textpoint" transform="translate(0,-31.8622047244375)"><text x="632.98" y="279.21" text-anchor="middle" style="font-family: 'Open Sans', verdana, arial, sans-serif; font-size: 10px; fill: rgb(0, 32, 96); fill-opacity: 1; white-space: pre;"><tspan class="line" dy="0em" x="632.98" y="279.21">15</tspan><tspan class="line" dy="1.3em" x="632.98" y="279.21">Actinomycin D</tspan><tspan class="line" dy="2.6em" x="632.98" y="279.21"></tspan></text></g><g class="textpoint" transform="translate(0,-31.8622047244375)"><text x="363.96" y="340.87" text-anchor="middle" style="font-family: 'Open Sans', verdana, arial, sans-serif; font-size: 10px; fill: rgb(0, 32, 96); fill-opacity: 1; white-space: pre;"><tspan class="line" dy="0em" x="363.96" y="340.87">16</tspan><tspan class="line" dy="1.3em" x="363.96" y="340.87">L-168</tspan><tspan class="line" dy="2.6em" x="363.96" y="340.87"></tspan></text></g><g class="textpoint" transform="translate(0,-31.8622047244375)"><text x="49.5" y="209.25" text-anchor="middle" style="font-family: 'Open Sans', verdana, arial, sans-serif; font-size: 10px; fill: rgb(0, 32, 96); fill-opacity: 1; white-space: pre;"><tspan class="line" dy="0em" x="49.5" y="209.25">17</tspan><tspan class="line" dy="1.3em" x="49.5" y="209.25">Triclosan</tspan><tspan class="line" dy="2.6em" x="49.5" y="209.25"></tspan></text></g><g class="textpoint" transform="translate(0,-31.8622047244375)"><text x="640.86" y="286.68" text-anchor="middle" style="font-family: 'Open Sans', verdana, arial, sans-serif; font-size: 10px; fill: rgb(0, 32, 96); fill-opacity: 1; white-space: pre;"><tspan class="line" dy="0em" x="640.86" y="286.68">18</tspan><tspan class="line" dy="1.3em" x="640.86" y="286.68">TW-37</tspan><tspan class="line" dy="2.6em" x="640.86" y="286.68"></tspan></text></g><g class="textpoint" transform="translate(0,-31.8622047244375)"><text x="216.76" y="271.05" text-anchor="middle" style="font-family: 'Open Sans', verdana, arial, sans-serif; font-size: 10px; fill: rgb(0, 32, 96); fill-opacity: 1; white-space: pre;"><tspan class="line" dy="0em" x="216.76" y="271.05">19</tspan><tspan class="line" dy="1.3em" x="216.76" y="271.05">Maprotiline</tspan><tspan class="line" dy="2.6em" x="216.76" y="271.05"></tspan></text></g><g class="textpoint" transform="translate(0,-31.8622047244375)"><text x="601.99" y="203.75" text-anchor="middle" style="font-family: 'Open Sans', verdana, arial, sans-serif; font-size: 10px; fill: rgb(0, 32, 96); fill-opacity: 1; white-space: pre;"><tspan class="line" dy="0em" x="601.99" y="203.75">20</tspan><tspan class="line" dy="1.3em" x="601.99" y="203.75">Dibenzazepine</tspan><tspan class="line" dy="2.6em" x="601.99" y="203.75"></tspan></text></g><g class="textpoint" transform="translate(0,-31.8622047244375)"><text x="238.73" y="410.25" text-anchor="middle" style="font-family: 'Open Sans', verdana, arial, sans-serif; font-size: 10px; fill: rgb(0, 32, 96); fill-opacity: 1; white-space: pre;"><tspan class="line" dy="0em" x="238.73" y="410.25">21</tspan><tspan class="line" dy="1.3em" x="238.73" y="410.25">Ursolic acid</tspan><tspan class="line" dy="2.6em" x="238.73" y="410.25"></tspan></text></g><g class="textpoint" transform="translate(0,-31.8622047244375)"><text x="223.58" y="288.96" text-anchor="middle" style="font-family: 'Open Sans', verdana, arial, sans-serif; font-size: 10px; fill: rgb(0, 32, 96); fill-opacity: 1; white-space: pre;"><tspan class="line" dy="0em" x="223.58" y="288.96">22</tspan><tspan class="line" dy="1.3em" x="223.58" y="288.96">Semagacestat</tspan><tspan class="line" dy="2.6em" x="223.58" y="288.96"></tspan></text></g><g class="textpoint" transform="translate(0,-31.8622047244375)"><text x="880.5" y="251.1" text-anchor="middle" style="font-family: 'Open Sans', verdana, arial, sans-serif; font-size: 10px; fill: rgb(0, 32, 96); fill-opacity: 1; white-space: pre;"><tspan class="line" dy="0em" x="880.5" y="251.1">23</tspan><tspan class="line" dy="1.3em" x="880.5" y="251.1">Entinostat</tspan><tspan class="line" dy="2.6em" x="880.5" y="251.1">TB32048</tspan></text></g><g class="textpoint" transform="translate(0,-31.8622047244375)"><text x="799.72" y="254.82" text-anchor="middle" style="font-family: 'Open Sans', verdana, arial, sans-serif; font-size: 10px; fill: rgb(0, 32, 96); fill-opacity: 1; white-space: pre;"><tspan class="line" dy="0em" x="799.72" y="254.82">24</tspan><tspan class="line" dy="1.3em" x="799.72" y="254.82">Entinostat</tspan><tspan class="line" dy="2.6em" x="799.72" y="254.82">K8484</tspan></text></g><g class="textpoint" transform="translate(0,-31.8622047244375)"><text x="723.13" y="346.78" text-anchor="middle" style="font-family: 'Open Sans', verdana, arial, sans-serif; font-size: 10px; fill: rgb(0, 32, 96); fill-opacity: 1; white-space: pre;"><tspan class="line" dy="0em" x="723.13" y="346.78">25</tspan><tspan class="line" dy="1.3em" x="723.13" y="346.78">Entinostat</tspan><tspan class="line" dy="2.6em" x="723.13" y="346.78">HPAF-II</tspan></text></g><g class="textpoint" transform="translate(0,-31.8622047244375)"><text x="713.99" y="213.29" text-anchor="middle" style="font-family: 'Open Sans', verdana, arial, sans-serif; font-size: 10px; fill: rgb(0, 32, 96); fill-opacity: 1; white-space: pre;"><tspan class="line" dy="0em" x="713.99" y="213.29">26</tspan><tspan class="line" dy="1.3em" x="713.99" y="213.29">Entinostat</tspan><tspan class="line" dy="2.6em" x="713.99" y="213.29">MIA PaCa-2</tspan></text></g><g class="textpoint" transform="translate(0,-31.8622047244375)"><text x="457.01" y="249.02" text-anchor="middle" style="font-family: 'Open Sans', verdana, arial, sans-serif; font-size: 10px; fill: rgb(0, 32, 96); fill-opacity: 1; white-space: pre;"><tspan class="line" dy="0em" x="457.01" y="249.02">27</tspan><tspan class="line" dy="1.3em" x="457.01" y="249.02">Palbociclib</tspan><tspan class="line" dy="2.6em" x="457.01" y="249.02"></tspan></text></g><g class="textpoint" transform="translate(0,-31.8622047244375)"><text x="202.99" y="24.75" text-anchor="middle" style="font-family: 'Open Sans', verdana, arial, sans-serif; font-size: 10px; fill: rgb(0, 32, 96); fill-opacity: 1; white-space: pre;"><tspan class="line" dy="0em" x="202.99" y="24.75">28</tspan><tspan class="line" dy="1.3em" x="202.99" y="24.75">STK525924</tspan><tspan class="line" dy="2.6em" x="202.99" y="24.75"></tspan></text></g><g class="textpoint" transform="translate(0,-31.8622047244375)"><text x="461.42" y="185.72" text-anchor="middle" style="font-family: 'Open Sans', verdana, arial, sans-serif; font-size: 10px; fill: rgb(0, 32, 96); fill-opacity: 1; white-space: pre;"><tspan class="line" dy="0em" x="461.42" y="185.72">29</tspan><tspan class="line" dy="1.3em" x="461.42" y="185.72">BX-795</tspan><tspan class="line" dy="2.6em" x="461.42" y="185.72"></tspan></text></g><g class="textpoint" transform="translate(0,-31.8622047244375)"><text x="231.66" y="238.92" text-anchor="middle" style="font-family: 'Open Sans', verdana, arial, sans-serif; font-size: 10px; fill: rgb(0, 32, 96); fill-opacity: 1; white-space: pre;"><tspan class="line" dy="0em" x="231.66" y="238.92">30</tspan><tspan class="line" dy="1.3em" x="231.66" y="238.92">Clofarabine</tspan><tspan class="line" dy="2.6em" x="231.66" y="238.92"></tspan></text></g><g class="textpoint" transform="translate(0,-31.8622047244375)"><text x="294.62" y="252.89" text-anchor="middle" style="font-family: 'Open Sans', verdana, arial, sans-serif; font-size: 10px; fill: rgb(0, 32, 96); fill-opacity: 1; white-space: pre;"><tspan class="line" dy="0em" x="294.62" y="252.89">31</tspan><tspan class="line" dy="1.3em" x="294.62" y="252.89">Tacedinaline</tspan><tspan class="line" dy="2.6em" x="294.62" y="252.89"></tspan></text></g><g class="textpoint" transform="translate(0,-31.8622047244375)"><text x="816.3" y="51.59" text-anchor="middle" style="font-family: 'Open Sans', verdana, arial, sans-serif; font-size: 10px; fill: rgb(0, 32, 96); fill-opacity: 1; white-space: pre;"><tspan class="line" dy="0em" x="816.3" y="51.59">32</tspan><tspan class="line" dy="1.3em" x="816.3" y="51.59">Entinostat</tspan><tspan class="line" dy="2.6em" x="816.3" y="51.59">PANC-1</tspan></text></g><g class="textpoint" transform="translate(0,-31.8622047244375)"><text x="573.71" y="48.07" text-anchor="middle" style="font-family: 'Open Sans', verdana, arial, sans-serif; font-size: 10px; fill: rgb(0, 32, 96); fill-opacity: 1; white-space: pre;"><tspan class="line" dy="0em" x="573.71" y="48.07">33</tspan><tspan class="line" dy="1.3em" x="573.71" y="48.07">Loperamide</tspan><tspan class="line" dy="2.6em" x="573.71" y="48.07"></tspan></text></g><g class="textpoint" transform="translate(0,-31.8622047244375)"><text x="603.29" y="139.49" text-anchor="middle" style="font-family: 'Open Sans', verdana, arial, sans-serif; font-size: 10px; fill: rgb(0, 32, 96); fill-opacity: 1; white-space: pre;"><tspan class="line" dy="0em" x="603.29" y="139.49">34</tspan><tspan class="line" dy="1.3em" x="603.29" y="139.49">Thioridazine</tspan><tspan class="line" dy="2.6em" x="603.29" y="139.49"></tspan></text></g></g></g></g></g><g class="overplot"/><path class="xlines-above crisp" d="M0,0" style="fill: none;"/><path class="ylines-above crisp" d="M0,0" style="fill: none;"/><g class="overlines-above"/><g class="xaxislayer-above"><g class="xtick"><text text-anchor="middle" x="0" y="473" transform="translate(95.32,0)" style="font-family: arial; font-size: 12px; fill: rgb(68, 68, 68); fill-opacity: 1; white-space: pre;">20</text></g><g class="xtick"><text text-anchor="middle" x="0" y="473" transform="translate(242.61,0)" style="font-family: arial; font-size: 12px; fill: rgb(68, 68, 68); fill-opacity: 1; white-space: pre;">30</text></g><g class="xtick"><text text-anchor="middle" x="0" y="473" transform="translate(389.9,0)" style="font-family: arial; font-size: 12px; fill: rgb(68, 68, 68); fill-opacity: 1; white-space: pre;">40</text></g><g class="xtick"><text text-anchor="middle" x="0" y="473" transform="translate(537.19,0)" style="font-family: arial; font-size: 12px; fill: rgb(68, 68, 68); fill-opacity: 1; white-space: pre;">50</text></g><g class="xtick"><text text-anchor="middle" x="0" y="473" transform="translate(684.48,0)" style="font-family: arial; font-size: 12px; fill: rgb(68, 68, 68); fill-opacity: 1; white-space: pre;">60</text></g><g class="xtick"><text text-anchor="middle" x="0" y="473" transform="translate(831.78,0)" style="font-family: arial; font-size: 12px; fill: rgb(68, 68, 68); fill-opacity: 1; white-space: pre;">70</text></g><g class="xtick"><text text-anchor="middle" x="0" y="473" transform="translate(979.07,0)" style="font-family: arial; font-size: 12px; fill: rgb(68, 68, 68); fill-opacity: 1; white-space: pre;">80</text></g></g><g class="yaxislayer-above"><g class="ytick"><text text-anchor="end" x="59" y="4.199999999999999" transform="translate(0,422.19)" style="font-family: arial; font-size: 12px; fill: rgb(68, 68, 68); fill-opacity: 1; white-space: pre;">−10</text></g><g class="ytick"><text text-anchor="end" x="59" y="4.199999999999999" transform="translate(0,340.57)" style="font-family: arial; font-size: 12px; fill: rgb(68, 68, 68); fill-opacity: 1; white-space: pre;">−5</text></g><g class="ytick"><text text-anchor="end" x="59" y="4.199999999999999" transform="translate(0,258.94)" style="font-family: arial; font-size: 12px; fill: rgb(68, 68, 68); fill-opacity: 1; white-space: pre;">0</text></g><g class="ytick"><text text-anchor="end" x="59" y="4.199999999999999" transform="translate(0,177.32)" style="font-family: arial; font-size: 12px; fill: rgb(68, 68, 68); fill-opacity: 1; white-space: pre;">5</text></g><g class="ytick"><text text-anchor="end" x="59" y="4.199999999999999" transform="translate(0,95.69)" style="font-family: arial; font-size: 12px; fill: rgb(68, 68, 68); fill-opacity: 1; white-space: pre;">10</text></g></g><g class="overaxes-above"/></g></g><g class="polarlayer"/><g class="ternarylayer"/><g class="geolayer"/><g class="funnelarealayer"/><g class="pielayer"/><g class="treemaplayer"/><g class="sunburstlayer"/><g class="glimages"/><defs id="topdefs-05505d"><g class="clips"/></defs><g class="layer-above"><g class="imagelayer"/><g class="shapelayer"/></g><g class="infolayer"><g class="g-gtitle"><text class="gtitle" x="500" y="5" text-anchor="middle" dy="0.7em" style="font-family: 'Open Sans', verdana, arial, sans-serif; font-size: 17px; fill: rgb(68, 68, 68); opacity: 1; font-weight: normal; white-space: pre;"><tspan style="font-weight:bold">ZIP - CSS</tspan></text></g><g class="g-xtitle" transform="translate(0,-15)"><text class="xtitle" x="525" y="512" text-anchor="middle" style="font-family: 'Open Sans', verdana, arial, sans-serif; font-size: 14px; fill: rgb(68, 68, 68); opacity: 1; font-weight: normal; white-space: pre;"><tspan style="font-style:italic">Combination Sensitivity Score</tspan></text></g><g class="g-ytitle"><text class="ytitle" transform="rotate(-90,22,242.5)" x="22" y="242.5" text-anchor="middle" style="font-family: 'Open Sans', verdana, arial, sans-serif; font-size: 14px; fill: rgb(68, 68, 68); opacity: 1; font-weight: normal; white-space: pre;"><tspan style="font-style:italic">Synergy Score</tspan></text></g></g></svg>